G75*
G70*
%OFA0B0*%
%FSLAX24Y24*%
%IPPOS*%
%LPD*%
%AMOC8*
5,1,8,0,0,1.08239X$1,22.5*
%
%ADD10R,0.0112X0.0433*%
%ADD11R,0.0433X0.0112*%
%ADD12R,0.0394X0.0433*%
%ADD13R,0.0433X0.0394*%
%ADD14R,0.0630X0.0709*%
%ADD15R,0.0512X0.0591*%
%ADD16R,0.1102X0.0394*%
%ADD17R,0.0512X0.0630*%
%ADD18R,0.0748X0.0551*%
%ADD19R,0.0591X0.0512*%
%ADD20R,0.0472X0.0138*%
%ADD21R,0.0138X0.0472*%
%ADD22O,0.0600X0.1200*%
%ADD23O,0.0520X0.1040*%
%ADD24R,0.0800X0.5125*%
%ADD25OC8,0.0630*%
%ADD26R,0.0787X0.0472*%
%ADD27R,0.0787X0.0787*%
%ADD28R,0.2126X0.2441*%
%ADD29R,0.0394X0.0630*%
%ADD30R,0.0165X0.0701*%
%ADD31OC8,0.0600*%
%ADD32C,0.2000*%
%ADD33R,0.0984X0.1575*%
%ADD34R,0.0157X0.1378*%
%ADD35OC8,0.0574*%
%ADD36R,0.0310X0.0350*%
%ADD37C,0.0400*%
%ADD38R,0.1024X0.0866*%
%ADD39R,0.0866X0.1024*%
%ADD40C,0.0160*%
%ADD41C,0.0280*%
%ADD42C,0.0240*%
%ADD43C,0.0100*%
%ADD44C,0.0120*%
%ADD45C,0.0400*%
%ADD46R,0.0400X0.0400*%
%ADD47R,0.0280X0.0280*%
%ADD48C,0.0500*%
%ADD49C,0.0660*%
%ADD50C,0.0320*%
%ADD51R,0.0396X0.0396*%
D10*
X063049Y040921D03*
X063246Y040921D03*
X063443Y040921D03*
X063640Y040921D03*
X063837Y040921D03*
X064034Y040921D03*
X064231Y040921D03*
X064427Y040921D03*
X064624Y040921D03*
X064821Y040921D03*
X065018Y040921D03*
X065215Y040921D03*
X065412Y040921D03*
X065609Y040921D03*
X065805Y040921D03*
X066002Y040921D03*
X066002Y045409D03*
X065805Y045409D03*
X065609Y045409D03*
X065412Y045409D03*
X065215Y045409D03*
X065018Y045409D03*
X064821Y045409D03*
X064624Y045409D03*
X064427Y045409D03*
X064231Y045409D03*
X064034Y045409D03*
X063837Y045409D03*
X063640Y045409D03*
X063443Y045409D03*
X063246Y045409D03*
X063049Y045409D03*
D11*
X062282Y044642D03*
X062282Y044445D03*
X062282Y044248D03*
X062282Y044051D03*
X062282Y043854D03*
X062282Y043657D03*
X062282Y043460D03*
X062282Y043264D03*
X062282Y043067D03*
X062282Y042870D03*
X062282Y042673D03*
X062282Y042476D03*
X062282Y042279D03*
X062282Y042083D03*
X062282Y041886D03*
X062282Y041689D03*
X066770Y041689D03*
X066770Y041886D03*
X066770Y042083D03*
X066770Y042279D03*
X066770Y042476D03*
X066770Y042673D03*
X066770Y042870D03*
X066770Y043067D03*
X066770Y043264D03*
X066770Y043460D03*
X066770Y043657D03*
X066770Y043854D03*
X066770Y044051D03*
X066770Y044248D03*
X066770Y044445D03*
X066770Y044642D03*
D12*
X066026Y046231D03*
X066026Y046900D03*
X064826Y046731D03*
X064826Y047400D03*
X054726Y042300D03*
X054726Y041631D03*
X053876Y041700D03*
X053876Y041031D03*
X052426Y040400D03*
X052426Y039731D03*
X065526Y039700D03*
X065526Y039031D03*
X056776Y028500D03*
X056776Y027831D03*
X053626Y027831D03*
X053626Y028500D03*
X052526Y028500D03*
X052526Y027831D03*
X058526Y016600D03*
X058526Y015931D03*
X071026Y015931D03*
X071026Y016600D03*
X040926Y016600D03*
X040926Y015931D03*
X029026Y015931D03*
X029026Y016600D03*
X013526Y021831D03*
X013526Y022500D03*
D13*
X037691Y014165D03*
X038360Y014165D03*
X049191Y028565D03*
X049860Y028565D03*
X047110Y033465D03*
X046441Y033465D03*
X046591Y037015D03*
X047260Y037015D03*
X047260Y038065D03*
X046591Y038065D03*
X059291Y034965D03*
X059960Y034965D03*
X068291Y042165D03*
X068960Y042165D03*
X068960Y043765D03*
X068291Y043765D03*
X060960Y044715D03*
X060291Y044715D03*
X014460Y039465D03*
X013791Y039465D03*
X013691Y038165D03*
X014360Y038165D03*
X014360Y035965D03*
X013691Y035965D03*
X012560Y040865D03*
X011891Y040865D03*
X010760Y040865D03*
X010091Y040865D03*
X072791Y010365D03*
X073460Y010365D03*
X085791Y010265D03*
X086460Y010265D03*
X098291Y010265D03*
X098960Y010265D03*
D14*
X062077Y048265D03*
X060975Y048265D03*
D15*
X061191Y047365D03*
X061860Y047365D03*
X064191Y048665D03*
X064860Y048665D03*
X066191Y047665D03*
X066860Y047665D03*
X072652Y042865D03*
X073400Y042865D03*
X073400Y039965D03*
X072652Y039965D03*
X069000Y038665D03*
X068252Y038665D03*
X092952Y027765D03*
X093700Y027765D03*
X093700Y026665D03*
X092952Y026665D03*
X078400Y020665D03*
X077652Y020665D03*
X071800Y023265D03*
X071052Y023265D03*
X069900Y023265D03*
X069152Y023265D03*
X068000Y023265D03*
X067252Y023265D03*
X067252Y024965D03*
X068000Y024965D03*
X069152Y024965D03*
X069900Y024965D03*
X071052Y024965D03*
X071800Y024965D03*
X077652Y017665D03*
X078400Y017665D03*
X079852Y016265D03*
X080600Y016265D03*
X078400Y014765D03*
X077652Y014765D03*
X052900Y026165D03*
X052152Y026165D03*
X049400Y019665D03*
X048652Y019665D03*
X048900Y014165D03*
X048152Y014165D03*
X034260Y032765D03*
X033591Y032765D03*
X028900Y039665D03*
X028152Y039665D03*
X023900Y039665D03*
X023152Y039665D03*
X021360Y039665D03*
X020691Y039665D03*
X020791Y041665D03*
X021460Y041665D03*
X023152Y041665D03*
X023900Y041665D03*
X023860Y043665D03*
X023191Y043665D03*
X031152Y043665D03*
X031900Y043665D03*
X038552Y043665D03*
X039300Y043665D03*
D16*
X072684Y038753D03*
X072684Y037178D03*
X074968Y037178D03*
X074968Y038753D03*
D17*
X066900Y048665D03*
X066152Y048665D03*
X036400Y043665D03*
X035652Y043665D03*
X028900Y043665D03*
X028152Y043665D03*
D18*
X068660Y046193D03*
X070392Y046193D03*
X070392Y047138D03*
X068660Y047138D03*
D19*
X048526Y046039D03*
X048526Y045291D03*
X047526Y045291D03*
X047526Y046039D03*
X045526Y046039D03*
X045526Y045291D03*
X044526Y045291D03*
X044526Y046039D03*
X043526Y046039D03*
X043526Y045291D03*
X042026Y045291D03*
X042026Y046039D03*
X034026Y022739D03*
X034026Y021991D03*
X034026Y016439D03*
X034026Y015691D03*
X022026Y018791D03*
X022026Y019539D03*
X059926Y021891D03*
X061126Y021891D03*
X062226Y021891D03*
X063526Y021891D03*
X063526Y022639D03*
X062226Y022639D03*
X061126Y022639D03*
X059926Y022639D03*
X063626Y016439D03*
X063626Y015691D03*
X092926Y011339D03*
X092926Y010591D03*
X104226Y010239D03*
X104226Y009491D03*
D20*
X057258Y030720D03*
X057258Y030917D03*
X057258Y031114D03*
X057258Y031311D03*
X057258Y031508D03*
X057258Y031705D03*
X057258Y031901D03*
X057258Y032098D03*
X057258Y032295D03*
X057258Y032492D03*
X057258Y032689D03*
X057258Y032886D03*
X057258Y033082D03*
X057258Y033279D03*
X057258Y033476D03*
X057258Y033673D03*
X057258Y033870D03*
X057258Y034067D03*
X057258Y034264D03*
X057258Y034461D03*
X057258Y034657D03*
X057258Y034854D03*
X057258Y035051D03*
X057258Y035248D03*
X057258Y035445D03*
X057258Y035642D03*
X057258Y035838D03*
X057258Y036035D03*
X057258Y036232D03*
X057258Y036429D03*
X057258Y036626D03*
X057258Y036823D03*
X057258Y037019D03*
X057258Y037216D03*
X057258Y037413D03*
X057258Y037610D03*
X048794Y037610D03*
X048794Y037413D03*
X048794Y037216D03*
X048794Y037019D03*
X048794Y036823D03*
X048794Y036626D03*
X048794Y036429D03*
X048794Y036232D03*
X048794Y036035D03*
X048794Y035838D03*
X048794Y035642D03*
X048794Y035445D03*
X048794Y035248D03*
X048794Y035051D03*
X048794Y034854D03*
X048794Y034657D03*
X048794Y034461D03*
X048794Y034264D03*
X048794Y034067D03*
X048794Y033870D03*
X048794Y033673D03*
X048794Y033476D03*
X048794Y033279D03*
X048794Y033082D03*
X048794Y032886D03*
X048794Y032689D03*
X048794Y032492D03*
X048794Y032295D03*
X048794Y032098D03*
X048794Y031901D03*
X048794Y031705D03*
X048794Y031508D03*
X048794Y031311D03*
X048794Y031114D03*
X048794Y030917D03*
X048794Y030720D03*
D21*
X049581Y029933D03*
X049778Y029933D03*
X049975Y029933D03*
X050172Y029933D03*
X050368Y029933D03*
X050565Y029933D03*
X050762Y029933D03*
X050959Y029933D03*
X051156Y029933D03*
X051353Y029933D03*
X051549Y029933D03*
X051746Y029933D03*
X051943Y029933D03*
X052140Y029933D03*
X052337Y029933D03*
X052534Y029933D03*
X052731Y029933D03*
X052927Y029933D03*
X053124Y029933D03*
X053321Y029933D03*
X053518Y029933D03*
X053715Y029933D03*
X053912Y029933D03*
X054109Y029933D03*
X054305Y029933D03*
X054502Y029933D03*
X054699Y029933D03*
X054896Y029933D03*
X055093Y029933D03*
X055290Y029933D03*
X055486Y029933D03*
X055683Y029933D03*
X055880Y029933D03*
X056077Y029933D03*
X056274Y029933D03*
X056471Y029933D03*
X056471Y038397D03*
X056274Y038397D03*
X056077Y038397D03*
X055880Y038397D03*
X055683Y038397D03*
X055486Y038397D03*
X055290Y038397D03*
X055093Y038397D03*
X054896Y038397D03*
X054699Y038397D03*
X054502Y038397D03*
X054305Y038397D03*
X054109Y038397D03*
X053912Y038397D03*
X053715Y038397D03*
X053518Y038397D03*
X053321Y038397D03*
X053124Y038397D03*
X052927Y038397D03*
X052731Y038397D03*
X052534Y038397D03*
X052337Y038397D03*
X052140Y038397D03*
X051943Y038397D03*
X051746Y038397D03*
X051549Y038397D03*
X051353Y038397D03*
X051156Y038397D03*
X050959Y038397D03*
X050762Y038397D03*
X050565Y038397D03*
X050368Y038397D03*
X050172Y038397D03*
X049975Y038397D03*
X049778Y038397D03*
X049581Y038397D03*
D22*
X045326Y040265D03*
X044326Y040265D03*
X043326Y040265D03*
X042326Y040265D03*
X041326Y040265D03*
X040326Y040265D03*
X037026Y047665D03*
X036026Y047665D03*
X033026Y047665D03*
X032026Y047665D03*
X029026Y047665D03*
X028026Y047665D03*
D23*
X028026Y020665D03*
X029026Y020665D03*
X030026Y020665D03*
X031026Y020665D03*
X032026Y020665D03*
X033026Y020665D03*
X034026Y020665D03*
X037526Y020665D03*
X038526Y020665D03*
X039526Y020665D03*
X040526Y020665D03*
X041526Y020665D03*
X042526Y020665D03*
X043526Y020665D03*
X044526Y020665D03*
X045526Y020665D03*
X046526Y020665D03*
X046526Y017665D03*
X045526Y017665D03*
X044526Y017665D03*
X043526Y017665D03*
X042526Y017665D03*
X041526Y017665D03*
X040526Y017665D03*
X039526Y017665D03*
X038526Y017665D03*
X037526Y017665D03*
X034026Y017665D03*
X033026Y017665D03*
X032026Y017665D03*
X031026Y017665D03*
X030026Y017665D03*
X029026Y017665D03*
X028026Y017665D03*
X027026Y017665D03*
X026026Y017665D03*
X025026Y017665D03*
X020526Y017665D03*
X019526Y017665D03*
X018526Y017665D03*
X017526Y017665D03*
X016526Y017665D03*
X015526Y017665D03*
X014526Y017665D03*
X013526Y017665D03*
X013526Y020665D03*
X014526Y020665D03*
X015526Y020665D03*
X016526Y020665D03*
X017526Y020665D03*
X018526Y020665D03*
X019526Y020665D03*
X020526Y020665D03*
X025026Y020665D03*
X026026Y020665D03*
X027026Y020665D03*
X039526Y014165D03*
X040526Y014165D03*
X041526Y014165D03*
X042526Y014165D03*
X043526Y014165D03*
X044526Y014165D03*
X045526Y014165D03*
X046526Y014165D03*
X046526Y011165D03*
X045526Y011165D03*
X044526Y011165D03*
X043526Y011165D03*
X042526Y011165D03*
X041526Y011165D03*
X040526Y011165D03*
X039526Y011165D03*
X054526Y017665D03*
X055526Y017665D03*
X056526Y017665D03*
X057526Y017665D03*
X058526Y017665D03*
X059526Y017665D03*
X060526Y017665D03*
X061526Y017665D03*
X062526Y017665D03*
X063526Y017665D03*
X067026Y017665D03*
X068026Y017665D03*
X069026Y017665D03*
X070026Y017665D03*
X071026Y017665D03*
X072026Y017665D03*
X073026Y017665D03*
X074026Y017665D03*
X075026Y017665D03*
X076026Y017665D03*
X076026Y014665D03*
X075026Y014665D03*
X074026Y014665D03*
X073026Y014665D03*
X072026Y014665D03*
X071026Y014665D03*
X070026Y014665D03*
X069026Y014665D03*
X068026Y014665D03*
X067026Y014665D03*
X067026Y011665D03*
X068026Y011665D03*
X069026Y011665D03*
X070026Y011665D03*
X071026Y011665D03*
X072026Y011665D03*
X073026Y011665D03*
X074026Y011665D03*
X075026Y011665D03*
X076026Y011665D03*
X082526Y011665D03*
X083526Y011665D03*
X084526Y011665D03*
X085526Y011665D03*
X086526Y011665D03*
X087526Y011665D03*
X088526Y011665D03*
X089526Y011665D03*
X090526Y011665D03*
X091526Y011665D03*
X095026Y011665D03*
X096026Y011665D03*
X097026Y011665D03*
X098026Y011665D03*
X099026Y011665D03*
X100026Y011665D03*
X101026Y011665D03*
X102026Y011665D03*
X103026Y011665D03*
X104026Y011665D03*
X104026Y014665D03*
X103026Y014665D03*
X102026Y014665D03*
X101026Y014665D03*
X100026Y014665D03*
X099026Y014665D03*
X098026Y014665D03*
X097026Y014665D03*
X096026Y014665D03*
X095026Y014665D03*
X091526Y014665D03*
X090526Y014665D03*
X089526Y014665D03*
X088526Y014665D03*
X087526Y014665D03*
X086526Y014665D03*
X085526Y014665D03*
X084526Y014665D03*
X083526Y014665D03*
X082526Y014665D03*
X076026Y020665D03*
X075026Y020665D03*
X074026Y020665D03*
X073026Y020665D03*
X072026Y020665D03*
X071026Y020665D03*
X070026Y020665D03*
X069026Y020665D03*
X068026Y020665D03*
X067026Y020665D03*
X063526Y020665D03*
X062526Y020665D03*
X061526Y020665D03*
X060526Y020665D03*
X059526Y020665D03*
X058526Y020665D03*
X057526Y020665D03*
X056526Y020665D03*
X055526Y020665D03*
X054526Y020665D03*
D24*
X003681Y003684D03*
X004896Y003694D03*
X006156Y003694D03*
X007406Y003694D03*
X008656Y003684D03*
X009896Y003684D03*
X011156Y003694D03*
X012396Y003694D03*
X013656Y003694D03*
X014906Y003684D03*
X016156Y003684D03*
X017396Y003684D03*
X018636Y003684D03*
X019896Y003694D03*
X021146Y003690D03*
X022402Y003690D03*
X023647Y003690D03*
X024870Y003700D03*
X031181Y003684D03*
X032396Y003694D03*
X033656Y003694D03*
X034906Y003694D03*
X036156Y003684D03*
X037396Y003684D03*
X038656Y003694D03*
X039896Y003694D03*
X041156Y003694D03*
X042406Y003684D03*
X043656Y003684D03*
X044896Y003684D03*
X046136Y003684D03*
X047396Y003694D03*
X048646Y003690D03*
X049902Y003690D03*
X051147Y003690D03*
X052370Y003700D03*
X056181Y003684D03*
X057396Y003694D03*
X058656Y003694D03*
X059906Y003694D03*
X061156Y003684D03*
X062396Y003684D03*
X063656Y003694D03*
X064896Y003694D03*
X066156Y003694D03*
X067406Y003684D03*
X068656Y003684D03*
X069896Y003684D03*
X071136Y003684D03*
X072396Y003694D03*
X073646Y003690D03*
X074902Y003690D03*
X076147Y003690D03*
X077370Y003700D03*
X083681Y003684D03*
X084896Y003694D03*
X086156Y003694D03*
X087406Y003694D03*
X088656Y003684D03*
X089896Y003684D03*
X091156Y003694D03*
X092396Y003694D03*
X093656Y003694D03*
X094906Y003684D03*
X096156Y003684D03*
X097396Y003684D03*
X098636Y003684D03*
X099896Y003694D03*
X101146Y003690D03*
X102402Y003690D03*
X103647Y003690D03*
X104870Y003700D03*
D25*
X105426Y008865D03*
X105426Y010865D03*
X077226Y010865D03*
X077226Y008865D03*
X052226Y008865D03*
X052226Y010865D03*
X034826Y023665D03*
X033226Y023665D03*
X033226Y025665D03*
X034826Y025665D03*
X024826Y010865D03*
X024826Y008865D03*
X076326Y023665D03*
X076326Y025665D03*
X102026Y031565D03*
X102026Y032665D03*
X104026Y032665D03*
X104026Y031565D03*
D26*
X039177Y032465D03*
X038075Y032465D03*
X035077Y034165D03*
X033975Y034165D03*
D27*
X038160Y033965D03*
X039892Y033965D03*
D28*
X037026Y038649D03*
D29*
X037923Y035775D03*
X036128Y035775D03*
D30*
X012431Y036994D03*
X012175Y036994D03*
X011920Y036994D03*
X011664Y036994D03*
X011408Y036994D03*
X011152Y036994D03*
X010896Y036994D03*
X010640Y036994D03*
X010640Y039336D03*
X010896Y039336D03*
X011152Y039336D03*
X011408Y039336D03*
X011664Y039336D03*
X011920Y039336D03*
X012175Y039336D03*
X012431Y039336D03*
D31*
X012026Y044665D03*
X013106Y044665D03*
X014186Y044665D03*
X013646Y045665D03*
X012566Y045665D03*
X011486Y045665D03*
X010406Y045665D03*
X010946Y044665D03*
X009866Y044665D03*
X041526Y047565D03*
X042526Y047565D03*
X043526Y047565D03*
X044526Y047565D03*
X045526Y047565D03*
X046526Y047565D03*
X047526Y047565D03*
X048526Y047565D03*
X049526Y047565D03*
X050526Y047565D03*
X050526Y048565D03*
X049526Y048565D03*
X048526Y048565D03*
X047526Y048565D03*
X046526Y048565D03*
X045526Y048565D03*
X044526Y048565D03*
X043526Y048565D03*
X042526Y048565D03*
X041526Y048565D03*
D32*
X016956Y045165D03*
X007096Y045165D03*
D33*
X084097Y046248D03*
X102955Y046248D03*
D34*
X099651Y035297D03*
X099401Y035297D03*
X099151Y035297D03*
X098901Y035297D03*
X098651Y035297D03*
X098401Y035297D03*
X098151Y035297D03*
X097901Y035297D03*
X097651Y035297D03*
X097401Y035297D03*
X097151Y035297D03*
X096901Y035297D03*
X096651Y035297D03*
X096401Y035297D03*
X096151Y035297D03*
X095901Y035297D03*
X095651Y035297D03*
X095401Y035297D03*
X095151Y035297D03*
X094901Y035297D03*
X094651Y035297D03*
X094401Y035297D03*
X094151Y035297D03*
X093901Y035297D03*
X093651Y035297D03*
X093401Y035297D03*
X093151Y035297D03*
X092901Y035297D03*
X092651Y035297D03*
X092401Y035297D03*
X092151Y035297D03*
X091901Y035297D03*
X091651Y035297D03*
X091401Y035297D03*
X091151Y035297D03*
X090901Y035297D03*
X090651Y035297D03*
X090401Y035297D03*
X090151Y035297D03*
X089901Y035297D03*
X089651Y035297D03*
X089401Y035297D03*
X089151Y035297D03*
X088901Y035297D03*
X088651Y035297D03*
X088401Y035297D03*
X088151Y035297D03*
X087901Y035297D03*
X087651Y035297D03*
X087401Y035297D03*
D35*
X023018Y046311D03*
X023018Y047098D03*
X022034Y047098D03*
X022034Y046311D03*
D36*
X028156Y042065D03*
X028916Y042065D03*
X028536Y041265D03*
D37*
X085439Y029559D03*
X086227Y029559D03*
X087014Y029559D03*
X087801Y029559D03*
X088589Y029559D03*
X089376Y029559D03*
X090164Y029559D03*
X090951Y029559D03*
X091738Y029559D03*
X092526Y029559D03*
X093313Y029559D03*
X094101Y029559D03*
X094888Y029559D03*
X095675Y029559D03*
X096463Y029559D03*
X097250Y029559D03*
X098038Y029559D03*
X098825Y029559D03*
X099612Y029559D03*
X100400Y029559D03*
X101187Y029559D03*
X101975Y029559D03*
X101975Y028771D03*
X101187Y028771D03*
X100400Y028771D03*
X099612Y028771D03*
X098825Y028771D03*
X098038Y028771D03*
X097250Y028771D03*
X096463Y028771D03*
X095675Y028771D03*
X094888Y028771D03*
X094101Y028771D03*
X093313Y028771D03*
X092526Y028771D03*
X091738Y028771D03*
X090951Y028771D03*
X090164Y028771D03*
X089376Y028771D03*
X088589Y028771D03*
X087801Y028771D03*
X087014Y028771D03*
X086227Y028771D03*
X085439Y028771D03*
X074526Y010365D03*
X074926Y008865D03*
X079226Y009565D03*
D38*
X078710Y022165D03*
X076742Y022165D03*
D39*
X079226Y012849D03*
X079226Y010881D03*
X053826Y010481D03*
X053826Y012449D03*
X022826Y012349D03*
X022826Y010381D03*
X009626Y020781D03*
X009626Y022749D03*
X103926Y019249D03*
X103926Y017281D03*
D40*
X104026Y011665D02*
X104186Y011345D01*
X104226Y011265D01*
X104026Y009465D02*
X103826Y009464D01*
X103040Y009458D01*
X092326Y011665D02*
X091526Y011665D01*
X071026Y020665D02*
X071026Y021865D01*
X071826Y022665D01*
X071826Y023065D01*
X071052Y023265D02*
X070626Y023565D01*
X070426Y024065D01*
X070726Y024965D01*
X071052Y024965D01*
X071800Y024965D02*
X073026Y024965D01*
X074526Y024965D01*
X076326Y023665D01*
X073026Y024965D02*
X073026Y025365D01*
X072726Y025665D01*
X070226Y025665D01*
X069900Y025339D01*
X069926Y025365D02*
X069926Y024965D01*
X069926Y025365D02*
X069626Y025665D01*
X068326Y025665D01*
X068000Y025339D01*
X068000Y024965D01*
X067226Y025065D02*
X067326Y024265D01*
X068026Y024065D01*
X067326Y023865D01*
X067252Y023265D01*
X068000Y023265D02*
X068000Y022991D01*
X068026Y022665D01*
X068226Y022465D01*
X069726Y022465D01*
X069926Y022665D01*
X069900Y023191D01*
X069152Y023265D02*
X069026Y024065D01*
X069126Y024965D01*
X070126Y022465D02*
X071626Y022465D01*
X063526Y022639D02*
X063526Y022665D01*
X063526Y023465D01*
X063526Y021891D02*
X063526Y020665D01*
X063526Y021865D02*
X063526Y021891D01*
X065526Y038515D02*
X065526Y039031D01*
X068960Y042165D02*
X069526Y042165D01*
X069526Y043765D02*
X068960Y043765D01*
X066776Y046865D02*
X066026Y046900D01*
X064826Y047400D02*
X064826Y047965D01*
X062726Y047365D02*
X061860Y047365D01*
X061191Y047365D02*
X060426Y047365D01*
X060226Y048265D02*
X060975Y048265D01*
X060291Y044715D02*
X059726Y044715D01*
X071726Y038765D02*
X072726Y038753D01*
X072684Y038753D01*
X038626Y043565D02*
X038626Y043665D01*
X038552Y043665D01*
X022026Y018791D02*
X022026Y018065D01*
X013526Y017765D02*
X013526Y017665D01*
X011826Y007765D02*
X012396Y007195D01*
X012396Y003694D01*
X016156Y003684D02*
X016156Y005935D01*
X016026Y006065D01*
D41*
X029026Y015165D03*
X037026Y014165D03*
X040926Y015265D03*
X058526Y015265D03*
X081426Y017465D03*
X097426Y010265D03*
X056776Y027265D03*
X056576Y029115D03*
X053626Y029215D03*
X052526Y029115D03*
X050526Y028665D03*
X048476Y028565D03*
X052526Y027265D03*
X053626Y027265D03*
X048026Y031315D03*
X047676Y033465D03*
X045876Y033465D03*
X047893Y035198D03*
X050926Y035865D03*
X051226Y035065D03*
X051926Y034565D03*
X047976Y037015D03*
X047976Y037615D03*
X045976Y038065D03*
X045976Y037015D03*
X051176Y037665D03*
X052326Y039115D03*
X053876Y040415D03*
X054726Y041015D03*
X053976Y042265D03*
X054926Y042865D03*
X055526Y043065D03*
X056026Y043365D03*
X057126Y041265D03*
X060226Y039965D03*
X060726Y039665D03*
X060226Y039365D03*
X060726Y039065D03*
X060226Y038765D03*
X060726Y038465D03*
X060226Y038165D03*
X063826Y039665D03*
X063826Y040165D03*
X064626Y040365D03*
X065476Y040165D03*
X064526Y039665D03*
X065526Y038515D03*
X067526Y038665D03*
X069826Y038665D03*
X071726Y038765D03*
X074226Y039965D03*
X074126Y042265D03*
X069526Y042165D03*
X067576Y042565D03*
X067626Y043665D03*
X066126Y043565D03*
X064526Y043465D03*
X064026Y043765D03*
X063526Y044065D03*
X062926Y043265D03*
X063326Y042965D03*
X063726Y042665D03*
X064126Y042365D03*
X064826Y041865D03*
X065326Y041565D03*
X066926Y040965D03*
X068126Y040165D03*
X068526Y040565D03*
X063626Y041565D03*
X061726Y041365D03*
X061626Y044715D03*
X059726Y044715D03*
X063737Y046254D03*
X064726Y046065D03*
X065276Y046165D03*
X066226Y045765D03*
X066926Y045365D03*
X066776Y046865D03*
X065526Y047665D03*
X064826Y047965D03*
X064126Y047165D03*
X063126Y047765D03*
X062726Y047365D03*
X063526Y048665D03*
X060226Y048265D03*
X060426Y047365D03*
X051626Y043465D03*
X050826Y043165D03*
X049426Y045265D03*
X052426Y040965D03*
X058726Y035065D03*
X060526Y034965D03*
X069526Y043765D03*
X013526Y023165D03*
D42*
X013526Y022500D01*
X013626Y021865D02*
X013591Y021831D01*
X013526Y021765D01*
X013526Y020665D01*
X013526Y021831D02*
X013591Y021831D01*
X029026Y017765D02*
X029026Y017665D01*
X029026Y016600D01*
X029026Y015931D02*
X029026Y015165D01*
X037026Y014165D02*
X037691Y014165D01*
X038360Y014165D02*
X039526Y014165D01*
X039626Y014165D01*
X040926Y015265D02*
X040926Y015931D01*
X040926Y016600D02*
X041526Y017665D01*
X058526Y017665D02*
X058526Y016600D01*
X058526Y015931D02*
X058526Y015265D01*
X071026Y014665D02*
X071026Y015931D01*
X071026Y016600D02*
X071026Y017665D01*
X071026Y011665D02*
X071026Y011565D01*
X072226Y010365D01*
X072791Y010365D01*
X072826Y010365D01*
X073460Y010365D02*
X074526Y010365D01*
X084326Y010265D02*
X085791Y010265D01*
X086460Y010265D02*
X086460Y011731D01*
X086426Y011765D01*
X086460Y011731D02*
X086526Y011665D01*
X097426Y010265D02*
X098291Y010265D01*
X098960Y010265D02*
X099026Y010765D01*
X099026Y011665D01*
X063126Y047765D02*
X062826Y047965D01*
X062077Y048265D01*
X063526Y048665D02*
X064191Y048665D01*
D43*
X064126Y047165D02*
X064231Y047060D01*
X064231Y045409D01*
X064231Y045370D01*
X064226Y045365D01*
X064226Y044865D01*
X064026Y044565D01*
X063026Y044565D01*
X062526Y045165D01*
X062226Y045565D01*
X055576Y045565D01*
X051746Y041936D01*
X051746Y038397D01*
X051549Y038397D02*
X051549Y042089D01*
X055426Y045765D01*
X062726Y045765D01*
X062826Y045665D01*
X062826Y045165D01*
X062926Y045065D01*
X063426Y045065D01*
X063626Y044865D01*
X063626Y045365D01*
X063640Y045379D01*
X063640Y045409D01*
X063443Y045409D02*
X063443Y046148D01*
X063226Y046365D01*
X053726Y046365D01*
X053426Y046165D01*
X048126Y042565D01*
X030426Y042565D01*
X029826Y042165D01*
X029826Y034865D01*
X029626Y034665D01*
X028526Y034665D01*
X028726Y034665D01*
X028526Y034665D02*
X011426Y034665D01*
X011152Y034939D01*
X011152Y036994D01*
X011408Y036994D02*
X011408Y037647D01*
X011526Y037765D01*
X011826Y037765D01*
X011926Y037665D01*
X011926Y037065D01*
X011955Y036994D01*
X011920Y036994D01*
X011920Y036571D01*
X012526Y035965D01*
X012526Y035365D01*
X012526Y035965D02*
X013691Y035965D01*
X014326Y035965D02*
X014326Y036565D01*
X013897Y036994D01*
X012526Y036994D01*
X012526Y036965D01*
X012497Y036994D01*
X012175Y036994D01*
X012431Y036994D02*
X012526Y036994D01*
X011664Y036994D02*
X011655Y036994D01*
X011626Y036965D01*
X011626Y036065D01*
X010640Y036994D02*
X010640Y037751D01*
X010926Y037965D01*
X012726Y037965D01*
X013326Y037365D01*
X015726Y037365D01*
X016226Y036865D01*
X016226Y035165D01*
X016426Y034965D01*
X029426Y034965D01*
X029626Y035165D01*
X029626Y042365D01*
X030226Y042765D01*
X048026Y042765D01*
X053126Y046265D01*
X053626Y046565D01*
X063926Y046565D01*
X064034Y046457D01*
X064034Y045409D01*
X063837Y045409D02*
X063837Y045954D01*
X063737Y046054D01*
X063737Y046254D01*
X063226Y046065D02*
X063126Y046165D01*
X055226Y046165D01*
X050959Y042198D01*
X050959Y038397D01*
X051156Y038397D02*
X051156Y037685D01*
X051176Y037665D01*
X052126Y037665D02*
X052534Y038073D01*
X052534Y038397D01*
X052927Y038397D02*
X052927Y038464D01*
X052926Y038465D01*
X052926Y042365D01*
X054712Y044051D01*
X062282Y044051D01*
X063512Y044051D01*
X063526Y044065D01*
X063237Y043854D02*
X062282Y043854D01*
X054815Y043854D01*
X053126Y042265D01*
X053126Y038365D01*
X053124Y038367D01*
X053124Y038397D01*
X053321Y038397D02*
X053321Y038461D01*
X053326Y038465D01*
X053326Y042165D01*
X054918Y043657D01*
X062282Y043657D01*
X063034Y043657D01*
X063326Y043365D01*
X064426Y043365D01*
X064526Y043465D01*
X064026Y043765D02*
X063926Y043665D01*
X063426Y043665D01*
X063237Y043854D01*
X062926Y044365D02*
X064326Y044365D01*
X064626Y044765D01*
X064426Y044865D01*
X064427Y045367D01*
X064427Y045409D01*
X064624Y045409D02*
X064624Y045864D01*
X064726Y046065D01*
X064826Y046265D01*
X064826Y046731D01*
X065276Y046165D02*
X065576Y045815D01*
X065609Y045798D02*
X065609Y045409D01*
X065805Y045409D02*
X065805Y045786D01*
X065776Y045815D02*
X065626Y045815D01*
X065412Y045851D02*
X065276Y046165D01*
X065226Y046115D02*
X065018Y045907D01*
X065018Y045409D01*
X065215Y045409D02*
X065215Y046054D01*
X065412Y045851D02*
X065412Y045409D01*
X066002Y045389D02*
X066002Y045409D01*
X066220Y045759D01*
X066002Y045389D02*
X066026Y045365D01*
X066026Y045115D01*
X065876Y044965D01*
X064976Y044965D01*
X064821Y045120D01*
X064821Y045409D01*
X063246Y045409D02*
X063246Y045945D01*
X063226Y046065D01*
X063026Y045865D02*
X063026Y045365D01*
X063049Y045389D01*
X063049Y045409D01*
X063026Y045865D02*
X062926Y045965D01*
X055326Y045965D01*
X051353Y042242D01*
X051353Y038397D01*
X051943Y038397D02*
X051943Y038848D01*
X051926Y038865D01*
X051926Y041765D01*
X054626Y044365D01*
X055726Y045365D01*
X062126Y045365D01*
X062576Y044815D01*
X062926Y044365D01*
X062282Y044248D02*
X055343Y044248D01*
X055226Y044365D01*
X056126Y043465D02*
X056026Y043365D01*
X056126Y043465D02*
X062282Y043460D01*
X062282Y043264D02*
X062926Y043265D01*
X063326Y042965D02*
X062934Y042673D01*
X062282Y042673D01*
X055734Y042673D01*
X055426Y042365D01*
X055426Y040865D01*
X054109Y039848D01*
X054109Y038397D01*
X054305Y038397D02*
X054305Y039745D01*
X055626Y040765D01*
X055626Y042265D01*
X055837Y042476D01*
X062282Y042476D01*
X063537Y042476D01*
X063726Y042665D01*
X064040Y042279D02*
X062282Y042279D01*
X055940Y042279D01*
X055826Y042165D01*
X055826Y040665D01*
X054502Y039642D01*
X054502Y038397D01*
X054699Y038397D02*
X054699Y039538D01*
X056026Y040565D01*
X056026Y041965D01*
X056143Y042083D01*
X062282Y042083D01*
X064543Y042083D01*
X064826Y041865D01*
X064626Y041465D02*
X065226Y041465D01*
X065326Y041565D01*
X065215Y040921D02*
X065215Y040454D01*
X065126Y040265D01*
X065126Y039265D01*
X064826Y038765D01*
X060226Y038765D01*
X057126Y038765D01*
X056726Y039165D01*
X056077Y038816D01*
X056077Y038397D01*
X056274Y038397D02*
X056274Y038713D01*
X056726Y038865D01*
X057026Y038465D01*
X060726Y038465D01*
X064226Y038465D01*
X064926Y038065D01*
X065826Y038065D01*
X066226Y038365D01*
X066226Y040065D01*
X065805Y040586D01*
X065805Y040921D01*
X065609Y040921D02*
X065626Y040465D01*
X066026Y039965D01*
X066026Y038865D01*
X065526Y038465D01*
X065526Y038515D01*
X066026Y037765D02*
X064826Y037765D01*
X064126Y038165D01*
X060226Y038165D01*
X057026Y038165D01*
X056526Y038365D01*
X056471Y038410D01*
X056471Y038397D01*
X056726Y037865D02*
X055826Y037365D01*
X055826Y031565D01*
X055626Y031365D01*
X053526Y031365D01*
X053326Y031165D01*
X053326Y029965D01*
X053321Y029961D01*
X053321Y029933D01*
X053124Y029933D02*
X053124Y026464D01*
X052826Y026165D01*
X052900Y026165D01*
X052152Y026165D02*
X052191Y026931D01*
X052526Y027265D01*
X052126Y027365D02*
X052126Y029765D01*
X052140Y029779D01*
X052140Y029933D01*
X051943Y029933D02*
X051943Y029782D01*
X051926Y029765D01*
X051926Y027665D01*
X050026Y025765D01*
X038526Y025765D01*
X038026Y025265D01*
X038026Y023065D01*
X036926Y021965D01*
X036926Y018265D01*
X037526Y017665D01*
X037926Y018565D02*
X038526Y017965D01*
X038526Y017665D01*
X039526Y017665D02*
X039526Y018065D01*
X039026Y018565D01*
X039026Y024665D01*
X039526Y025165D01*
X053126Y025165D01*
X053926Y025865D01*
X053926Y026865D01*
X054076Y027115D01*
X054076Y029115D01*
X053926Y029365D01*
X053926Y029765D01*
X053912Y029779D01*
X053912Y029933D01*
X054109Y029933D02*
X054109Y029782D01*
X054126Y029765D01*
X054126Y029465D01*
X054276Y029265D01*
X054276Y027065D01*
X054126Y026815D01*
X054126Y025765D01*
X053226Y024865D01*
X040626Y024865D01*
X040026Y024265D01*
X040026Y018565D01*
X040526Y018065D01*
X040526Y017665D01*
X042026Y018265D02*
X042026Y023965D01*
X042526Y024465D01*
X053226Y024465D01*
X054326Y025565D01*
X054326Y026715D01*
X054476Y027015D01*
X054476Y029365D01*
X054326Y029565D01*
X054305Y029786D01*
X054305Y029933D01*
X054502Y029933D02*
X054502Y029789D01*
X054526Y029615D01*
X054676Y029465D01*
X054676Y026965D01*
X054576Y026665D01*
X054576Y025465D01*
X053326Y024165D01*
X043726Y024165D01*
X043026Y023465D01*
X043026Y018565D01*
X043526Y018065D01*
X043526Y017665D01*
X044526Y017665D02*
X044526Y018065D01*
X044026Y018565D01*
X044026Y023265D01*
X044626Y023865D01*
X053426Y023865D01*
X054826Y025265D01*
X054826Y026615D01*
X054876Y026815D01*
X054876Y029515D01*
X054896Y029895D01*
X054896Y029933D01*
X055093Y029933D02*
X055093Y029648D01*
X055076Y029465D01*
X055076Y025165D01*
X053426Y023465D01*
X045426Y023465D01*
X045026Y023065D01*
X045026Y018565D01*
X045526Y018065D01*
X045526Y017665D01*
X046526Y017665D02*
X046526Y019065D01*
X047126Y019665D01*
X048652Y019665D01*
X049400Y019665D02*
X050626Y019665D01*
X050726Y019765D01*
X050726Y019665D01*
X052226Y020665D02*
X046526Y020665D01*
X049826Y022165D02*
X057026Y022165D01*
X057526Y021665D01*
X057526Y020665D01*
X059526Y020665D02*
X059926Y021865D01*
X059926Y021891D01*
X061126Y021891D02*
X061226Y021865D01*
X060526Y020665D01*
X061526Y020665D02*
X061526Y019965D01*
X061626Y019665D01*
X069926Y019665D01*
X070126Y022465D02*
X069926Y022665D01*
X069926Y023265D01*
X069900Y023265D01*
X069900Y023191D01*
X071626Y022465D02*
X071826Y022665D01*
X071826Y023065D02*
X071800Y023091D01*
X071800Y023265D01*
X069926Y024965D02*
X069900Y024965D01*
X069900Y025339D01*
X069152Y024965D02*
X069126Y024965D01*
X067252Y024965D02*
X067226Y025065D01*
X066226Y024065D02*
X054626Y024065D01*
X057326Y022765D02*
X058226Y023665D01*
X058526Y023665D01*
X057326Y022765D02*
X048226Y022765D01*
X050426Y021165D02*
X053126Y021165D01*
X053626Y020665D01*
X054526Y020665D01*
X049426Y018265D02*
X049426Y017065D01*
X049026Y016665D01*
X042826Y016665D01*
X042526Y016365D01*
X042526Y014165D01*
X041526Y014165D02*
X041526Y016165D01*
X042226Y016865D01*
X047826Y016865D01*
X048226Y017265D01*
X049426Y016265D02*
X049826Y015665D01*
X048826Y015665D02*
X048226Y015065D01*
X046026Y015065D01*
X045526Y014565D01*
X045526Y014165D01*
X046026Y013665D02*
X046026Y014665D01*
X046226Y014865D01*
X050826Y014865D01*
X058026Y014865D01*
X056426Y013465D02*
X070226Y013465D01*
X075626Y013465D01*
X076026Y013865D01*
X076026Y014665D01*
X077226Y014465D02*
X077526Y014765D01*
X077652Y014765D01*
X077226Y014465D02*
X077226Y012265D01*
X076026Y011665D01*
X077926Y009765D02*
X071826Y009765D01*
X071226Y010565D01*
X056126Y010565D01*
X055926Y010765D01*
X055926Y013065D01*
X055426Y013565D01*
X052426Y013565D01*
X051826Y012465D01*
X048426Y012465D01*
X047026Y011065D01*
X047026Y010665D01*
X046826Y010465D01*
X043226Y010465D01*
X043026Y010765D01*
X043026Y011565D01*
X042926Y012065D01*
X039726Y012065D01*
X039526Y011465D01*
X039526Y011165D01*
X039526Y011065D01*
X040026Y010565D02*
X039926Y010465D01*
X029126Y010465D01*
X022926Y017365D01*
X022926Y020665D01*
X022026Y021565D01*
X022026Y029465D01*
X022326Y029865D01*
X041426Y029865D01*
X044526Y032965D01*
X047326Y032965D01*
X047543Y033082D01*
X048794Y033082D01*
X048794Y032886D02*
X047646Y032886D01*
X047426Y032765D01*
X044926Y032765D01*
X044726Y032565D01*
X044026Y031865D02*
X041626Y029465D01*
X023026Y029465D01*
X022726Y029065D01*
X022726Y022665D01*
X021226Y021965D02*
X022626Y020565D01*
X022626Y017065D01*
X023426Y016165D01*
X028726Y010165D01*
X040226Y010165D01*
X040526Y010865D01*
X040526Y011165D01*
X040026Y011565D02*
X040026Y010565D01*
X040026Y011565D02*
X040226Y011865D01*
X041326Y011865D01*
X041526Y011465D01*
X041526Y011165D01*
X042526Y011165D02*
X042526Y010965D01*
X043026Y010265D01*
X047026Y010265D01*
X047326Y010565D01*
X047326Y010965D01*
X048526Y012165D01*
X052126Y012165D01*
X052726Y013265D01*
X055226Y013265D01*
X055626Y012865D01*
X055626Y010565D01*
X055926Y010265D01*
X071126Y010265D01*
X071726Y009465D01*
X077826Y009465D01*
X078926Y008665D01*
X083226Y008665D01*
X083426Y008465D01*
X083426Y007065D01*
X083726Y006765D01*
X084526Y006765D01*
X085326Y007565D01*
X087126Y007565D01*
X087406Y007285D01*
X087406Y003694D01*
X086226Y003665D02*
X086197Y003694D01*
X086156Y003694D01*
X084626Y007265D02*
X084026Y007265D01*
X084626Y007265D02*
X085226Y007865D01*
X088426Y007865D01*
X089027Y007264D01*
X090427Y007264D01*
X089626Y008065D02*
X088926Y008765D01*
X083626Y008765D01*
X083426Y008965D01*
X079026Y008965D01*
X077926Y009765D01*
X081226Y009465D02*
X083526Y009465D01*
X084626Y009065D01*
X089126Y009065D01*
X089726Y008465D01*
X102926Y008465D01*
X103647Y007644D01*
X103647Y003690D01*
X104870Y003700D02*
X104870Y007821D01*
X104026Y008865D01*
X089826Y008865D01*
X089226Y009465D01*
X084626Y009465D01*
X083026Y010065D01*
X081726Y010065D01*
X082526Y011665D02*
X082626Y011665D01*
X082026Y012265D01*
X082026Y025965D01*
X074726Y033265D01*
X063626Y033265D01*
X063226Y033665D01*
X058326Y033665D01*
X057924Y034067D01*
X057258Y034067D01*
X057258Y034264D02*
X058027Y034264D01*
X058426Y033865D01*
X063326Y033865D01*
X063726Y033465D01*
X074826Y033465D01*
X083076Y025215D01*
X083026Y012265D01*
X083526Y011665D01*
X084026Y012265D02*
X084526Y011665D01*
X085026Y012265D02*
X085626Y011665D01*
X085526Y011665D01*
X085026Y012265D02*
X085026Y023865D01*
X075026Y033865D01*
X063926Y033865D01*
X063526Y034265D01*
X058626Y034265D01*
X058037Y034854D01*
X057258Y034854D01*
X057258Y034657D02*
X057934Y034657D01*
X058526Y034065D01*
X063426Y034065D01*
X063826Y033665D01*
X074926Y033665D01*
X078726Y029865D01*
X084026Y024565D01*
X084026Y012265D01*
X087026Y012265D02*
X087526Y011765D01*
X087526Y011665D01*
X088026Y012265D02*
X088526Y011665D01*
X089026Y012265D02*
X089026Y020765D01*
X075326Y034465D01*
X064226Y034465D01*
X063049Y035642D01*
X057258Y035642D01*
X057258Y035838D02*
X063153Y035838D01*
X064326Y034665D01*
X075426Y034665D01*
X090026Y020065D01*
X090026Y015765D01*
X090026Y012265D01*
X090426Y011665D01*
X090526Y011665D01*
X089526Y011665D02*
X089026Y012265D01*
X088026Y012265D02*
X088026Y021465D01*
X075226Y034265D01*
X064126Y034265D01*
X062946Y035445D01*
X057258Y035445D01*
X057258Y035051D02*
X058140Y035051D01*
X058726Y034465D01*
X063626Y034465D01*
X064026Y034065D01*
X075126Y034065D01*
X087326Y021865D01*
X087326Y015565D01*
X087026Y015365D01*
X087026Y012265D01*
X092326Y011665D02*
X092426Y011665D01*
X092926Y011339D01*
X092926Y010591D02*
X092926Y009765D01*
X089626Y008065D02*
X101626Y008065D01*
X101926Y007665D01*
X101926Y006765D01*
X102402Y006289D01*
X102402Y003690D01*
X097426Y003665D02*
X097407Y003684D01*
X097226Y003865D01*
X097226Y006665D01*
X096826Y007065D01*
X097396Y003684D02*
X097407Y003684D01*
X103826Y009464D02*
X103826Y009465D01*
X104226Y009491D01*
X104226Y010239D02*
X104226Y011365D01*
X104186Y011345D01*
X103026Y011665D02*
X102526Y012065D01*
X102526Y016765D01*
X101126Y018165D01*
X094326Y018165D01*
X076226Y036265D01*
X065126Y036265D01*
X063781Y037610D01*
X057258Y037610D01*
X057258Y037413D02*
X063678Y037413D01*
X065026Y036065D01*
X076126Y036065D01*
X094326Y017865D01*
X100626Y017865D01*
X101526Y016965D01*
X101526Y012165D01*
X102026Y011665D01*
X101026Y011665D02*
X100526Y012165D01*
X100526Y016765D01*
X099726Y017565D01*
X094326Y017565D01*
X076026Y035865D01*
X064926Y035865D01*
X063575Y037216D01*
X057258Y037216D01*
X057258Y037019D02*
X056772Y037019D01*
X056726Y037065D01*
X057258Y036823D02*
X063668Y036823D01*
X064826Y035665D01*
X075926Y035665D01*
X094926Y016665D01*
X097226Y016665D01*
X098526Y015365D01*
X098526Y013165D01*
X100026Y011665D01*
X098026Y011665D02*
X097526Y012165D01*
X097526Y015365D01*
X096526Y016365D01*
X094926Y016365D01*
X075826Y035465D01*
X064726Y035465D01*
X063565Y036626D01*
X057258Y036626D01*
X057258Y036429D02*
X063462Y036429D01*
X064626Y035265D01*
X075726Y035265D01*
X094926Y016065D01*
X095826Y016065D01*
X096526Y015365D01*
X096526Y012165D01*
X097026Y011665D01*
X096026Y011665D02*
X095526Y012165D01*
X095526Y015365D01*
X095326Y015565D01*
X095126Y015565D01*
X075626Y035065D01*
X064526Y035065D01*
X063359Y036232D01*
X057258Y036232D01*
X057258Y036035D02*
X063256Y036035D01*
X064426Y034865D01*
X075526Y034865D01*
X094526Y015865D01*
X094526Y012165D01*
X095026Y011665D01*
X090026Y015765D02*
X090026Y015865D01*
X081426Y016965D02*
X081426Y017465D01*
X081426Y026265D01*
X074626Y033065D01*
X063526Y033065D01*
X063126Y033465D01*
X058226Y033465D01*
X058018Y033673D01*
X057258Y033673D01*
X057258Y033870D02*
X056631Y033870D01*
X056676Y033865D01*
X056631Y034461D02*
X056376Y034665D01*
X056631Y034461D02*
X057258Y034461D01*
X057258Y033082D02*
X056543Y033082D01*
X056526Y033065D01*
X056626Y033065D01*
X057258Y032689D02*
X061149Y032689D01*
X061726Y033265D01*
X063026Y033265D01*
X063426Y032865D01*
X074526Y032865D01*
X078326Y029065D01*
X078326Y027965D01*
X078526Y027765D01*
X078526Y027165D02*
X078526Y027065D01*
X078426Y026965D01*
X056426Y026965D01*
X056274Y027117D01*
X056274Y029933D01*
X056077Y029933D02*
X056077Y027014D01*
X056326Y026765D01*
X079126Y026765D01*
X078826Y026365D02*
X078626Y026565D01*
X056226Y026565D01*
X055880Y026911D01*
X055880Y029933D01*
X055683Y029933D02*
X055683Y026708D01*
X056026Y026365D01*
X078426Y026365D01*
X078826Y025965D01*
X080326Y025965D01*
X079826Y026365D02*
X078826Y026365D01*
X078826Y029765D02*
X078726Y029865D01*
X083126Y029765D02*
X083126Y043065D01*
X083426Y043365D01*
X088726Y043365D01*
X089026Y043065D01*
X089026Y041665D01*
X088926Y041565D01*
X088926Y036165D01*
X088901Y035297D01*
X089151Y035297D02*
X089126Y032665D01*
X089126Y031865D01*
X089026Y031565D01*
X089126Y030965D02*
X089626Y031365D01*
X089626Y034465D01*
X089651Y035297D01*
X089901Y035297D02*
X089926Y036165D01*
X089726Y036565D01*
X089726Y043465D01*
X089426Y043865D01*
X089426Y048765D01*
X089926Y049665D01*
X090626Y048865D02*
X090626Y048265D01*
X090626Y048365D01*
X090626Y048265D02*
X090626Y037065D01*
X090826Y036865D01*
X090826Y036365D01*
X090651Y036190D01*
X090651Y035297D01*
X090651Y031590D01*
X089326Y030265D01*
X089326Y029665D01*
X089426Y029565D01*
X089420Y029559D01*
X089376Y029559D01*
X088626Y029565D02*
X088626Y029865D01*
X090151Y031390D01*
X090151Y035297D01*
X090151Y035890D01*
X090126Y035965D01*
X090126Y036265D01*
X089926Y036665D01*
X089926Y045065D01*
X088226Y043165D02*
X088526Y042865D01*
X088526Y042265D01*
X088526Y042165D01*
X088426Y042065D01*
X088426Y040965D01*
X088426Y041065D01*
X088426Y040965D02*
X088426Y036065D01*
X088401Y035297D01*
X088651Y035297D02*
X088626Y034465D01*
X088626Y032465D01*
X088526Y032265D01*
X089726Y030365D02*
X091151Y031790D01*
X091151Y035297D01*
X091151Y036040D01*
X091126Y036065D01*
X091126Y048765D01*
X091207Y049282D01*
X096626Y044458D02*
X096626Y042765D01*
X096626Y040765D01*
X096926Y040565D01*
X096926Y036165D01*
X096901Y036140D01*
X096901Y035297D01*
X096901Y031340D01*
X096026Y030465D01*
X096026Y029065D01*
X095675Y028715D01*
X095675Y028771D01*
X095675Y028715D02*
X095626Y028665D01*
X096426Y028665D02*
X096463Y028702D01*
X096826Y029065D01*
X096826Y030065D01*
X097501Y030640D01*
X097501Y031290D01*
X097326Y031465D01*
X097326Y034365D01*
X097401Y034440D01*
X097401Y035297D01*
X097426Y040565D01*
X097626Y040765D01*
X097626Y041665D01*
X097326Y041865D01*
X097326Y044065D01*
X098026Y043565D02*
X097901Y043090D01*
X097901Y035297D01*
X097901Y033540D01*
X097626Y033365D01*
X097626Y032665D01*
X097926Y032465D01*
X097926Y030265D01*
X097626Y030065D01*
X097626Y029065D01*
X097250Y028690D01*
X097250Y028771D01*
X097250Y028690D02*
X097226Y028665D01*
X096463Y028702D02*
X096463Y028771D01*
X094526Y028265D02*
X094476Y028315D01*
X094476Y029765D01*
X096401Y031690D01*
X096401Y035297D01*
X096651Y035297D02*
X096651Y031490D01*
X095626Y030565D01*
X095276Y030215D01*
X095276Y026165D01*
X094976Y025865D01*
X088326Y025865D01*
X087376Y026815D01*
X087376Y029165D01*
X087776Y029565D01*
X087782Y029559D01*
X087801Y029559D01*
X088589Y029559D02*
X088620Y029559D01*
X088626Y029565D01*
X089726Y030365D02*
X089726Y028265D01*
X089526Y028065D01*
X088826Y028065D01*
X088626Y028265D01*
X088626Y028765D01*
X088620Y028771D01*
X088589Y028771D01*
X087826Y028765D02*
X087826Y026965D01*
X088576Y026115D01*
X094276Y026115D01*
X094526Y026265D01*
X094526Y028265D01*
X093726Y028065D02*
X093700Y027765D01*
X093760Y027831D02*
X093726Y027865D01*
X093726Y028065D01*
X093726Y029165D01*
X094101Y029540D01*
X094101Y029559D01*
X094826Y029465D02*
X094888Y029527D01*
X095026Y029665D01*
X094888Y029559D02*
X094888Y029527D01*
X093326Y029565D02*
X093320Y029559D01*
X092926Y029165D01*
X092326Y029165D01*
X092126Y029365D01*
X092126Y030465D01*
X093126Y031465D01*
X094226Y031465D01*
X094901Y032140D01*
X094901Y035297D01*
X095401Y035297D02*
X095401Y032240D01*
X094426Y031265D01*
X093226Y031265D01*
X092626Y030665D01*
X092626Y029665D01*
X092520Y029559D01*
X092526Y029559D01*
X092520Y029559D02*
X092426Y029465D01*
X091738Y029378D02*
X091326Y028965D01*
X091326Y027365D01*
X091926Y026665D01*
X092952Y026665D01*
X092926Y027365D02*
X093626Y027165D01*
X093626Y026865D01*
X093726Y026765D01*
X093700Y026739D01*
X093700Y026665D01*
X092926Y027365D02*
X093026Y027665D01*
X092952Y027765D01*
X092226Y027765D01*
X092952Y027765D01*
X093313Y029559D02*
X093320Y029559D01*
X091738Y029559D02*
X091738Y029378D01*
X090226Y029565D02*
X090226Y030565D01*
X091626Y031965D01*
X093726Y031965D01*
X093901Y032140D01*
X093901Y035297D01*
X093651Y035297D02*
X093626Y036265D01*
X093426Y036265D01*
X093401Y035297D01*
X092926Y035265D02*
X092926Y036565D01*
X093626Y036265D02*
X094026Y036565D01*
X094426Y036565D01*
X094392Y036586D01*
X094392Y036331D01*
X094401Y036140D01*
X094401Y035297D01*
X092926Y035265D02*
X092901Y035290D01*
X092901Y035297D01*
X091901Y035297D02*
X091901Y032790D01*
X091926Y032765D01*
X090426Y035065D02*
X090426Y035365D01*
X090401Y035340D01*
X090401Y035297D01*
X090426Y035365D02*
X090426Y036565D01*
X087926Y036065D02*
X087926Y041665D01*
X087926Y042665D01*
X087726Y042865D01*
X084126Y042865D01*
X083926Y042665D01*
X083926Y029765D01*
X088126Y025565D01*
X099326Y025565D01*
X099612Y025852D01*
X099612Y028771D01*
X099226Y029165D02*
X098826Y028665D01*
X098825Y028666D01*
X098825Y028771D01*
X098426Y029065D02*
X098038Y028677D01*
X098038Y028771D01*
X098038Y028677D02*
X098026Y028665D01*
X098426Y029065D02*
X098426Y032265D01*
X098226Y032465D01*
X098226Y032865D01*
X098401Y033040D01*
X098401Y035297D01*
X098401Y036040D01*
X098426Y036065D01*
X098426Y042365D01*
X098425Y042666D01*
X098426Y042665D01*
X098626Y043165D01*
X098926Y042565D02*
X098926Y042365D01*
X098926Y042365D01*
X098926Y036265D01*
X098901Y036090D01*
X098901Y035297D01*
X098901Y032990D01*
X099026Y032865D01*
X099026Y032665D01*
X098826Y032465D01*
X098826Y030465D01*
X099226Y030065D01*
X099226Y029165D01*
X098825Y029559D02*
X098825Y029966D01*
X098626Y030165D01*
X098626Y032765D01*
X098626Y034465D01*
X098651Y035297D01*
X099151Y035297D02*
X099176Y034565D01*
X099176Y034315D01*
X099226Y034265D01*
X099226Y032365D01*
X099326Y031765D02*
X101126Y031765D01*
X102026Y032665D01*
X102026Y032765D01*
X102026Y031665D02*
X101975Y031614D01*
X101975Y029559D01*
X101187Y028771D02*
X101187Y025527D01*
X100726Y024965D01*
X087926Y024965D01*
X083126Y029765D01*
X083526Y029765D02*
X083526Y042865D01*
X083826Y043165D01*
X088226Y043165D01*
X087926Y041865D02*
X087926Y041665D01*
X089026Y041665D02*
X089026Y041765D01*
X097126Y041265D02*
X097126Y040865D01*
X097126Y040865D01*
X097129Y040865D01*
X097126Y040965D01*
X097129Y040865D02*
X097126Y040565D01*
X097126Y036165D01*
X097151Y036140D01*
X097151Y035297D01*
X097151Y034490D01*
X097126Y034465D01*
X097126Y030965D01*
X098026Y033165D02*
X098026Y033365D01*
X098126Y033465D01*
X098126Y034465D01*
X098151Y035297D01*
X097651Y035297D02*
X097626Y034565D01*
X097626Y033765D01*
X099651Y034340D02*
X099926Y034065D01*
X100526Y034065D01*
X099651Y034340D02*
X099651Y035297D01*
X095651Y035297D02*
X095651Y035340D01*
X095626Y035365D01*
X095626Y036565D01*
X087926Y036065D02*
X087901Y035297D01*
X087401Y035297D02*
X087426Y036565D01*
X075026Y037165D02*
X072826Y037165D01*
X072684Y037178D01*
X072426Y037165D01*
X069126Y037165D01*
X068226Y038665D01*
X068252Y038665D01*
X068226Y038665D02*
X067526Y038665D01*
X066626Y037865D02*
X066126Y037465D01*
X064726Y037465D01*
X064126Y037865D01*
X056726Y037865D01*
X055880Y038397D02*
X055880Y038919D01*
X056726Y039465D01*
X057126Y039065D01*
X060726Y039065D01*
X064626Y039065D01*
X064926Y039565D01*
X064926Y040365D01*
X065018Y040573D01*
X065018Y040921D01*
X064624Y040921D02*
X064626Y040365D01*
X064226Y040665D02*
X064526Y039665D01*
X064126Y040065D02*
X063826Y039665D01*
X064126Y040065D02*
X064126Y040265D01*
X064026Y040465D01*
X064026Y040665D01*
X064034Y040921D01*
X064231Y040921D02*
X064226Y040665D01*
X064231Y040921D02*
X064226Y041265D01*
X061926Y041265D01*
X061726Y041365D01*
X062282Y041689D02*
X063102Y041689D01*
X063226Y041565D01*
X063626Y041565D01*
X064146Y041886D02*
X062282Y041886D01*
X056346Y041886D01*
X056226Y041765D01*
X056226Y040465D01*
X054896Y039435D01*
X054896Y038397D01*
X055093Y038397D02*
X055093Y039332D01*
X056426Y040365D01*
X056426Y041565D01*
X056549Y041689D01*
X062282Y041689D01*
X062826Y040865D02*
X057526Y040865D01*
X057126Y041265D01*
X056726Y040365D02*
X057126Y039965D01*
X060226Y039965D01*
X062826Y039965D01*
X063246Y040686D01*
X063246Y040921D01*
X063049Y040921D02*
X062826Y040865D01*
X063443Y040921D02*
X063443Y040583D01*
X062926Y039665D01*
X060526Y039665D01*
X057126Y039665D01*
X056726Y040065D01*
X055486Y039126D01*
X055486Y038397D01*
X055290Y038397D02*
X055290Y039229D01*
X056726Y040365D01*
X056726Y039765D02*
X057126Y039365D01*
X060226Y039365D01*
X063126Y039365D01*
X063640Y040479D01*
X063640Y040921D01*
X063837Y040921D02*
X063826Y040665D01*
X063826Y040165D01*
X066002Y040689D02*
X066002Y040921D01*
X066002Y040689D02*
X066426Y040165D01*
X066426Y038065D01*
X066026Y037765D01*
X066626Y037865D02*
X066626Y040265D01*
X066226Y040765D01*
X066226Y041365D01*
X066126Y041665D01*
X066126Y041965D01*
X066440Y042279D01*
X066770Y042279D01*
X066770Y042083D02*
X067009Y042083D01*
X067326Y042065D01*
X068126Y040165D01*
X068526Y040565D02*
X067526Y042265D01*
X067226Y042265D01*
X067126Y042465D01*
X066770Y042476D01*
X066778Y042665D02*
X067326Y042665D01*
X067426Y042565D01*
X067576Y042565D01*
X067126Y042865D02*
X067026Y042864D01*
X067026Y042865D01*
X072652Y042865D01*
X073400Y042865D02*
X073526Y042865D01*
X074126Y042265D01*
X074226Y039965D02*
X073400Y039965D01*
X072652Y039965D02*
X071626Y039965D01*
X071326Y039665D01*
X067826Y039665D01*
X067526Y039965D01*
X067126Y041865D01*
X066770Y041886D01*
X066770Y041689D02*
X066726Y041565D01*
X066726Y041365D01*
X066926Y040965D01*
X064626Y041465D02*
X064326Y041765D01*
X064146Y041886D01*
X064040Y042279D02*
X064126Y042365D01*
X062282Y043067D02*
X055526Y043065D01*
X051626Y043465D02*
X051576Y043465D01*
X050762Y042651D01*
X050762Y038397D01*
X050565Y038397D02*
X050565Y042855D01*
X050626Y042965D01*
X050826Y043165D01*
X048126Y044365D02*
X047726Y043665D01*
X039300Y043665D01*
X039226Y043665D01*
X039226Y043165D01*
X039026Y043065D01*
X030026Y043065D01*
X028916Y042355D01*
X028916Y042065D01*
X028156Y042065D02*
X027226Y042065D01*
X028536Y041265D02*
X028536Y040855D01*
X028826Y040565D01*
X028826Y039665D01*
X028900Y039665D01*
X028226Y039765D02*
X026926Y039765D01*
X026126Y040565D01*
X026126Y049265D01*
X026626Y049765D01*
X030326Y049765D01*
X030226Y049765D01*
X030326Y049765D02*
X071326Y049765D01*
X072426Y048565D01*
X072426Y045665D01*
X070024Y043264D01*
X066770Y043264D01*
X066770Y043460D02*
X067421Y043460D01*
X067626Y043665D01*
X068291Y043765D01*
X067626Y043665D02*
X066770Y043657D01*
X066770Y043854D02*
X066415Y043854D01*
X066126Y043565D01*
X066770Y044051D02*
X067625Y044049D01*
X067626Y044065D01*
X067330Y044249D02*
X066770Y044248D01*
X066770Y044642D02*
X066770Y045209D01*
X066926Y045365D01*
X066770Y043067D02*
X070227Y043067D01*
X072726Y045665D01*
X072726Y048665D01*
X071426Y050065D01*
X022326Y050065D01*
X021226Y048665D01*
X021226Y043965D01*
X023126Y041665D01*
X023152Y041665D01*
X023226Y041665D01*
X023326Y041665D01*
X023226Y041665D02*
X023126Y041565D01*
X023126Y041665D02*
X021460Y041665D01*
X020791Y041665D02*
X019926Y041665D01*
X022826Y041665D02*
X023126Y041665D01*
X023826Y041565D02*
X023826Y042065D01*
X023900Y041665D01*
X023860Y041600D02*
X023826Y041565D01*
X023826Y042065D02*
X023826Y042665D01*
X023191Y043300D01*
X023191Y043665D01*
X023191Y043700D01*
X023018Y043873D01*
X023018Y046311D01*
X023018Y047098D02*
X023693Y047098D01*
X023826Y046965D01*
X023826Y043665D01*
X024626Y042865D01*
X024626Y040265D01*
X024026Y039665D01*
X023900Y039665D01*
X023226Y039665D02*
X023226Y039565D01*
X023126Y039665D01*
X021360Y039665D01*
X020726Y039565D02*
X020691Y039600D01*
X020626Y039665D01*
X019826Y039665D01*
X020691Y039665D02*
X020691Y039600D01*
X023152Y039665D02*
X023226Y039665D01*
X023226Y039565D02*
X023226Y039265D01*
X023626Y038865D01*
X027326Y038865D01*
X028191Y039731D01*
X028152Y039665D01*
X028191Y039731D02*
X028226Y039765D01*
X033326Y041765D02*
X033626Y041465D01*
X049826Y041465D01*
X050172Y041119D01*
X050172Y038397D01*
X049581Y038397D02*
X049581Y037610D01*
X050126Y037065D01*
X054026Y037065D01*
X055026Y036065D01*
X055026Y034765D01*
X053826Y034865D02*
X052726Y036265D01*
X050626Y036265D01*
X050496Y036035D01*
X048794Y036035D01*
X048794Y035838D02*
X045599Y035838D01*
X040826Y031065D01*
X019326Y031065D01*
X019026Y030665D01*
X019026Y019965D01*
X018826Y019765D01*
X014826Y019765D01*
X014526Y019465D01*
X014526Y017665D01*
X015526Y017665D02*
X015526Y019265D01*
X015726Y019465D01*
X019726Y019465D01*
X020026Y019665D01*
X020026Y021565D01*
X019426Y022065D01*
X019426Y030465D01*
X019726Y030865D01*
X040926Y030865D01*
X045702Y035642D01*
X048794Y035642D01*
X049126Y035665D01*
X050726Y035665D01*
X050926Y035865D01*
X050393Y036232D02*
X048794Y036232D01*
X048794Y036429D02*
X047790Y036429D01*
X047426Y036065D01*
X045526Y036065D01*
X040726Y031265D01*
X018926Y031265D01*
X018526Y030765D01*
X018526Y020665D01*
X018526Y020565D01*
X020426Y021965D02*
X021026Y021365D01*
X021026Y019565D01*
X020626Y019165D01*
X018926Y019165D01*
X018526Y018765D01*
X018526Y017665D01*
X019526Y017665D02*
X019526Y018465D01*
X019826Y018765D01*
X020726Y018765D01*
X021426Y019465D01*
X022026Y019465D01*
X022026Y020365D01*
X022026Y019539D02*
X022026Y019465D01*
X024526Y018365D02*
X024526Y028165D01*
X025126Y028765D01*
X045626Y028765D01*
X046326Y029465D01*
X049926Y029465D01*
X050176Y029615D01*
X050172Y029933D01*
X050368Y029933D02*
X050376Y029565D01*
X050326Y029465D01*
X050026Y029265D01*
X046426Y029265D01*
X045726Y028565D01*
X026126Y028565D01*
X025526Y027965D01*
X025526Y018865D01*
X026026Y018365D01*
X026026Y017665D01*
X027026Y017665D02*
X027026Y018365D01*
X026526Y018865D01*
X026526Y027965D01*
X026826Y028265D01*
X045826Y028265D01*
X046626Y029065D01*
X050126Y029065D01*
X050526Y029365D01*
X050576Y029765D01*
X050565Y029933D01*
X050762Y029933D02*
X050712Y029201D01*
X050626Y029115D01*
X050526Y028665D01*
X050926Y028265D02*
X050526Y027965D01*
X027926Y027965D01*
X027526Y027565D01*
X027526Y018865D01*
X028026Y018365D01*
X028026Y017665D01*
X027026Y017665D02*
X027026Y017565D01*
X025026Y017665D02*
X024526Y018365D01*
X025026Y018865D02*
X025526Y018365D01*
X025526Y015465D01*
X028926Y012065D01*
X037626Y012065D01*
X037826Y012265D01*
X043526Y012265D01*
X043626Y012165D01*
X043626Y012065D01*
X044526Y012065D02*
X045326Y012065D01*
X045826Y012465D01*
X047326Y012465D01*
X047626Y012865D01*
X047626Y013065D01*
X047326Y013365D01*
X046926Y013365D01*
X046426Y013065D01*
X035326Y013065D01*
X035026Y013365D01*
X035026Y023165D01*
X035226Y023365D01*
X036626Y023365D01*
X036826Y023565D01*
X036826Y026565D01*
X037126Y026865D01*
X045126Y026865D01*
X045226Y026765D01*
X044726Y026465D02*
X044526Y026665D01*
X037326Y026665D01*
X037026Y026365D01*
X037026Y023465D01*
X036726Y023165D01*
X035626Y023165D01*
X035426Y022965D01*
X035426Y013565D01*
X035726Y013265D01*
X046326Y013265D01*
X046826Y013565D01*
X047426Y013565D01*
X047826Y013165D01*
X047826Y012765D01*
X047426Y012265D01*
X045926Y012265D01*
X045426Y011865D01*
X045026Y011865D01*
X044526Y011365D01*
X044526Y011165D01*
X044526Y012065D02*
X043526Y011165D01*
X045526Y011165D02*
X045526Y011565D01*
X046126Y012065D01*
X047526Y012065D01*
X048026Y012665D01*
X048026Y014065D01*
X048226Y014065D01*
X048191Y014100D01*
X048152Y014165D01*
X046526Y014165D01*
X046026Y013665D02*
X045826Y013465D01*
X045026Y013465D01*
X044526Y014165D01*
X045026Y015865D02*
X045426Y016265D01*
X049426Y016265D01*
X050626Y016465D02*
X043626Y016465D01*
X043426Y016065D01*
X043026Y016065D01*
X042526Y017665D02*
X042526Y017765D01*
X042026Y018265D01*
X037926Y018565D02*
X037926Y022465D01*
X038326Y022865D01*
X038326Y024965D01*
X038826Y025465D01*
X050226Y025465D01*
X052126Y027365D01*
X051726Y027865D02*
X051726Y029365D01*
X051746Y029386D01*
X051746Y029933D01*
X051549Y029933D02*
X051549Y029389D01*
X051526Y029365D01*
X051526Y027965D01*
X050826Y027365D01*
X032026Y027365D01*
X031526Y026965D01*
X031526Y018865D01*
X032026Y018365D01*
X032026Y017665D01*
X033026Y017665D02*
X033026Y018465D01*
X032526Y018965D01*
X032526Y026865D01*
X032926Y027165D01*
X050926Y027165D01*
X051726Y027865D01*
X051326Y028065D02*
X050726Y027565D01*
X030926Y027565D01*
X030526Y027165D01*
X030526Y018165D01*
X031026Y017665D01*
X030026Y017665D02*
X029526Y018165D01*
X029526Y027565D01*
X029826Y027765D01*
X050626Y027765D01*
X051126Y028165D01*
X051126Y029365D01*
X051156Y029933D01*
X051353Y029933D02*
X051326Y029265D01*
X051326Y028065D01*
X050926Y028265D02*
X050926Y029165D01*
X050959Y029933D01*
X050926Y030665D02*
X050226Y030665D01*
X049975Y030414D01*
X049975Y029933D01*
X048826Y030165D02*
X047826Y030165D01*
X047626Y029965D01*
X046126Y029965D01*
X045426Y029165D01*
X023926Y029165D01*
X023326Y028865D01*
X024226Y028665D02*
X024626Y028965D01*
X045526Y028965D01*
X046326Y029765D01*
X048026Y029765D01*
X047026Y030665D02*
X047026Y031965D01*
X047853Y032492D01*
X048794Y032492D01*
X048794Y032689D02*
X047749Y032689D01*
X046426Y031865D01*
X044026Y031865D01*
X045126Y034165D02*
X041226Y030265D01*
X021626Y030265D01*
X021226Y029865D01*
X021226Y021965D01*
X020426Y021965D02*
X020426Y030065D01*
X020726Y030465D01*
X041126Y030465D01*
X045226Y034565D01*
X048126Y034565D01*
X048415Y034854D01*
X048794Y034854D01*
X048794Y035051D02*
X048312Y035051D01*
X048126Y034865D01*
X045226Y034865D01*
X041026Y030665D01*
X020226Y030665D01*
X019926Y030265D01*
X019926Y022665D01*
X017526Y022065D02*
X017526Y030765D01*
X018126Y031465D01*
X040626Y031465D01*
X045526Y036365D01*
X047426Y036365D01*
X047686Y036626D01*
X048794Y036626D01*
X048794Y036823D02*
X053268Y036823D01*
X054126Y035965D01*
X053826Y035465D02*
X053026Y036465D01*
X050526Y036465D01*
X050393Y036232D01*
X048794Y035445D02*
X052846Y035445D01*
X053326Y034965D01*
X053326Y034265D01*
X051926Y034565D02*
X050426Y034565D01*
X049426Y032665D01*
X049126Y032665D01*
X048794Y032689D01*
X048794Y032295D02*
X047956Y032295D01*
X047426Y031965D01*
X047426Y031465D01*
X048794Y031508D02*
X048976Y031515D01*
X050976Y031515D01*
X051226Y031765D01*
X051226Y033665D01*
X051226Y035065D02*
X048826Y035065D01*
X048794Y035051D01*
X048826Y034465D02*
X049626Y034465D01*
X049726Y034365D01*
X048826Y034465D02*
X048821Y034461D01*
X048794Y034461D01*
X048794Y033673D02*
X048318Y033673D01*
X048026Y034165D01*
X045126Y034165D01*
X045426Y033965D02*
X045226Y033765D01*
X045426Y033965D02*
X047926Y033965D01*
X048237Y033476D01*
X048794Y033476D01*
X052526Y030565D02*
X052731Y030361D01*
X052731Y029933D01*
X052927Y029933D02*
X052927Y030464D01*
X052926Y030465D01*
X052526Y030565D01*
X052534Y030557D01*
X052534Y029933D01*
X053518Y029933D02*
X053518Y030457D01*
X053626Y030565D01*
X054626Y030565D01*
X054699Y030392D01*
X054699Y029933D01*
X055290Y029933D02*
X055290Y025801D01*
X055826Y025265D01*
X065026Y025265D01*
X065626Y025765D02*
X056126Y025765D01*
X055486Y026305D01*
X055486Y029933D01*
X056526Y030865D02*
X056975Y031114D01*
X057258Y031114D01*
X057258Y030917D02*
X058674Y030917D01*
X059026Y030565D01*
X059026Y027865D01*
X058026Y027965D02*
X058026Y030365D01*
X057671Y030720D01*
X057258Y030720D01*
X057258Y031311D02*
X056780Y031311D01*
X056726Y031365D01*
X057258Y031508D02*
X059283Y031508D01*
X059626Y031165D01*
X067126Y031165D01*
X067426Y030665D01*
X068226Y031465D02*
X068526Y031265D01*
X068226Y031465D02*
X060826Y031465D01*
X060390Y031901D01*
X057258Y031901D01*
X057258Y031705D02*
X059486Y031705D01*
X060026Y031565D01*
X060793Y032098D02*
X061026Y031865D01*
X060793Y032098D02*
X057258Y032098D01*
X057258Y032295D02*
X068996Y032295D01*
X069526Y031765D01*
X069526Y031665D01*
X062026Y032765D02*
X061499Y032492D01*
X057258Y032492D01*
X053526Y037665D02*
X053526Y038365D01*
X053518Y038373D01*
X053518Y038397D01*
X052140Y038397D02*
X052140Y038451D01*
X052126Y038465D01*
X052126Y037665D01*
X055683Y038397D02*
X055683Y039023D01*
X056726Y039765D01*
X060526Y039665D02*
X060726Y039665D01*
X066770Y042673D02*
X066778Y042665D01*
X066731Y042860D02*
X067026Y042864D01*
X066770Y042870D02*
X066731Y042860D01*
X062282Y044642D02*
X061858Y045165D01*
X060026Y045165D01*
X059726Y044865D01*
X059726Y044715D01*
X059726Y044665D01*
X049426Y045265D02*
X049400Y045291D01*
X048526Y045291D01*
X048526Y046039D02*
X048526Y047565D01*
X048426Y047565D01*
X047526Y047565D02*
X047526Y046039D01*
X047526Y045291D02*
X047526Y045265D01*
X047500Y045291D01*
X045526Y045291D01*
X045526Y045265D01*
X045500Y045291D01*
X044526Y045291D01*
X045526Y045291D01*
X045526Y046039D02*
X045526Y047565D01*
X044526Y047565D02*
X044526Y046039D01*
X044526Y046065D02*
X044526Y047565D01*
X043526Y047565D02*
X043526Y047665D01*
X043526Y047565D02*
X043526Y046039D01*
X043526Y045291D02*
X041952Y045291D01*
X041926Y045265D01*
X041952Y045291D02*
X042026Y045291D01*
X042052Y045291D01*
X042026Y045265D01*
X042026Y045291D01*
X041500Y045291D01*
X041426Y045365D01*
X041426Y047565D01*
X041526Y047565D01*
X042526Y047565D02*
X042526Y046365D01*
X042200Y046039D01*
X042026Y046039D01*
X042052Y045291D02*
X043526Y045291D01*
X044526Y045291D01*
X038626Y043665D02*
X037426Y043665D01*
X036400Y043665D01*
X035726Y043665D02*
X035626Y043765D01*
X035626Y044465D01*
X036026Y044865D01*
X036026Y047665D01*
X032026Y047665D02*
X032026Y045665D01*
X031126Y044765D01*
X031126Y044165D01*
X031152Y043665D01*
X031126Y043665D02*
X031126Y044165D01*
X031826Y043665D02*
X031900Y043665D01*
X032626Y043665D01*
X032726Y043565D01*
X032726Y043665D01*
X035652Y043665D02*
X035726Y043665D01*
X028900Y043665D02*
X028900Y045439D01*
X029126Y045665D01*
X029126Y047665D01*
X029026Y047665D01*
X028152Y043665D02*
X027226Y043665D01*
X023860Y043665D02*
X023826Y043665D01*
X015126Y039465D02*
X014460Y039465D01*
X014326Y039365D01*
X014326Y039965D01*
X014126Y040165D01*
X013226Y040165D01*
X013026Y039965D01*
X013026Y039565D01*
X012597Y039336D01*
X012431Y039336D01*
X012197Y039336D02*
X012175Y039336D01*
X012197Y039336D02*
X012126Y039465D01*
X012126Y039965D01*
X012560Y040200D01*
X012560Y040865D01*
X011891Y040865D02*
X011891Y040331D01*
X011726Y040165D01*
X011726Y039565D01*
X011626Y039465D01*
X011664Y039427D01*
X011664Y039336D01*
X011426Y039365D02*
X011426Y040065D01*
X010760Y040731D01*
X010760Y040865D01*
X010091Y040865D02*
X010091Y040500D01*
X010526Y040065D01*
X010926Y040065D01*
X011126Y039865D01*
X011126Y039265D01*
X011152Y039291D01*
X011152Y039336D01*
X011408Y039336D02*
X011408Y039347D01*
X011426Y039365D01*
X011920Y039336D02*
X011920Y038871D01*
X012026Y038665D01*
X013426Y038665D01*
X013726Y038965D01*
X013726Y039365D01*
X013791Y039465D01*
X011226Y038165D02*
X010896Y038495D01*
X010896Y039336D01*
X010640Y039351D02*
X010640Y039336D01*
X010640Y039351D02*
X010626Y039365D01*
X009826Y039365D01*
X009226Y039965D01*
X009226Y044965D01*
X009426Y045165D01*
X011426Y045165D01*
X011926Y044665D01*
X012026Y044665D01*
X011226Y038165D02*
X013691Y038165D01*
X014360Y038165D02*
X015126Y038165D01*
X015126Y035965D02*
X014360Y035965D01*
X014326Y035965D01*
X016326Y031665D02*
X015526Y030865D01*
X015526Y020665D01*
X014526Y020665D02*
X014426Y020665D01*
X014026Y020265D01*
X014026Y015665D01*
X014226Y015265D01*
X023026Y015265D01*
X028126Y009465D01*
X046626Y009465D01*
X047426Y010165D01*
X047526Y010265D01*
X047926Y010265D01*
X047226Y009665D02*
X049426Y009665D01*
X049826Y010065D01*
X050226Y009565D02*
X049726Y009065D01*
X047626Y009065D01*
X047226Y009665D02*
X046026Y008465D01*
X043226Y008465D01*
X042826Y008065D01*
X042826Y007465D01*
X042406Y007045D01*
X042406Y003684D01*
X043656Y003684D02*
X043656Y007035D01*
X044026Y007265D01*
X044102Y007909D01*
X044896Y007295D02*
X045215Y007853D01*
X044896Y007295D02*
X044896Y003684D01*
X046136Y003684D02*
X046136Y007555D01*
X046824Y007909D01*
X047396Y007435D02*
X047396Y003694D01*
X048646Y003690D02*
X048646Y007285D01*
X049026Y008065D01*
X050326Y008065D01*
X051126Y008865D01*
X050626Y007365D02*
X049902Y006989D01*
X049902Y003690D01*
X047396Y007435D02*
X048026Y007865D01*
X044107Y009865D02*
X028326Y009865D01*
X023226Y015665D01*
X018226Y015665D01*
X018026Y016065D01*
X020426Y014865D02*
X014026Y014865D01*
X013526Y015565D01*
X013526Y017665D01*
X015526Y017665D02*
X015526Y017565D01*
X012926Y015565D02*
X012926Y023865D01*
X011821Y023878D02*
X011826Y007765D01*
X016026Y006065D02*
X016026Y014065D01*
X015826Y014465D01*
X013826Y014465D01*
X012926Y015565D01*
X020426Y014865D02*
X021146Y014245D01*
X021146Y003690D01*
X031181Y003684D02*
X031226Y006465D01*
X031626Y006865D01*
X032396Y006435D02*
X032826Y006865D01*
X032396Y006435D02*
X032396Y003694D01*
X036156Y003684D02*
X036226Y006065D01*
X036226Y008265D01*
X036626Y008765D01*
X038442Y008764D01*
X039026Y007865D02*
X037826Y007865D01*
X037396Y007235D01*
X037396Y003684D01*
X041156Y003694D02*
X041226Y005865D01*
X041226Y007856D01*
X041026Y008865D02*
X043226Y008865D01*
X045026Y012465D02*
X029326Y012465D01*
X026526Y015265D01*
X026526Y018365D01*
X026026Y018865D01*
X026026Y020665D01*
X027026Y020665D02*
X027026Y018865D01*
X027526Y018365D01*
X027526Y015065D01*
X029626Y012865D01*
X047026Y012865D01*
X049226Y012965D02*
X049226Y013065D01*
X049226Y013865D01*
X048926Y014165D01*
X048900Y014165D01*
X050826Y014865D02*
X050826Y015065D01*
X051126Y014365D02*
X050226Y013265D01*
X051126Y013265D02*
X051426Y013965D01*
X066126Y013965D01*
X066726Y013865D01*
X067526Y013865D01*
X068026Y014665D01*
X067026Y014665D02*
X066226Y014365D01*
X051126Y014365D01*
X057526Y009865D02*
X070626Y009865D01*
X069826Y009265D02*
X057026Y009265D01*
X060426Y008065D02*
X061676Y008065D01*
X066226Y008665D02*
X066226Y005665D01*
X066156Y005595D01*
X066156Y003694D01*
X068026Y011665D02*
X068026Y012665D01*
X067826Y012865D01*
X065626Y012865D01*
X063626Y014865D02*
X063626Y015691D01*
X063626Y015765D01*
X063626Y016439D02*
X063626Y016465D01*
X063526Y016565D01*
X063526Y017665D01*
X061526Y020665D02*
X062226Y021865D01*
X062226Y021891D01*
X062226Y022639D02*
X062226Y022665D01*
X063526Y022665D01*
X062226Y022665D02*
X062200Y022639D01*
X061126Y022639D01*
X061126Y022665D01*
X061100Y022639D01*
X059926Y022639D01*
X076026Y020665D02*
X077652Y020665D01*
X078400Y020665D02*
X079226Y020665D01*
X079226Y017665D02*
X078400Y017665D01*
X077652Y017665D02*
X076026Y017665D01*
X079226Y017665D02*
X079226Y016665D01*
X079626Y016265D01*
X079852Y016265D01*
X080600Y016265D02*
X081026Y016565D01*
X080726Y016265D01*
X081026Y016565D02*
X081426Y016965D01*
X079226Y014765D02*
X078400Y014765D01*
X070426Y013465D02*
X070226Y013465D01*
X083526Y029765D02*
X088026Y025265D01*
X100026Y025265D01*
X100400Y025639D01*
X100400Y028771D01*
X102026Y031565D02*
X102026Y031665D01*
X104026Y031565D02*
X104026Y032665D01*
X090226Y029565D02*
X090220Y029559D01*
X090164Y029559D01*
X087826Y028765D02*
X087801Y028771D01*
X075026Y037165D02*
X074968Y037178D01*
X069826Y038665D02*
X069000Y038665D01*
X068926Y038665D01*
X048794Y037413D02*
X048478Y037413D01*
X048426Y037465D01*
X048426Y038165D01*
X048026Y038565D01*
X045826Y038565D01*
X045426Y038165D01*
X045426Y036565D01*
X040526Y031665D01*
X016326Y031665D01*
X034026Y023465D02*
X034026Y022739D01*
X034026Y021991D02*
X034026Y020665D01*
X034026Y020565D01*
X031126Y020665D02*
X031026Y020665D01*
X025026Y020665D02*
X025026Y018865D01*
X034026Y017665D02*
X034026Y016439D01*
X034026Y015691D02*
X034026Y014865D01*
X103926Y016065D02*
X103926Y016165D01*
D44*
X060526Y034965D02*
X059960Y034965D01*
X059291Y034965D02*
X058726Y035065D01*
X058309Y035248D01*
X057258Y035248D01*
X053912Y038397D02*
X053912Y040001D01*
X054426Y040365D01*
X054726Y040665D01*
X054726Y041015D01*
X054726Y041631D01*
X054726Y042300D02*
X054926Y042865D01*
X053976Y042265D02*
X053876Y041700D01*
X053876Y041031D02*
X053876Y040415D01*
X053715Y040076D01*
X053715Y038397D01*
X052337Y038397D02*
X052337Y039204D01*
X052326Y039115D01*
X052426Y039731D01*
X052426Y040400D02*
X052426Y040965D01*
X047976Y037615D02*
X047526Y038065D01*
X047260Y038065D01*
X047226Y038065D01*
X046591Y038065D02*
X045976Y038065D01*
X045976Y037015D02*
X046591Y037015D01*
X047260Y037015D02*
X047976Y037015D01*
X047580Y037019D01*
X048794Y037019D01*
X048794Y037216D02*
X048375Y037216D01*
X047976Y037615D01*
X047959Y035248D02*
X048794Y035248D01*
X047959Y035248D02*
X047926Y035215D01*
X047893Y035198D01*
X047676Y033465D02*
X047110Y033465D01*
X047676Y033465D02*
X047840Y033279D01*
X048794Y033279D01*
X046441Y033465D02*
X045876Y033465D01*
X048026Y031315D02*
X048030Y031311D01*
X048794Y031311D01*
X052337Y029933D02*
X052337Y029226D01*
X052526Y029115D01*
X052526Y028500D01*
X052526Y027831D02*
X052526Y027265D01*
X053626Y027265D02*
X053626Y027831D01*
X053626Y028500D02*
X053626Y029215D01*
X053715Y029226D01*
X053715Y029933D01*
X056471Y029933D02*
X056471Y029270D01*
X056576Y029115D01*
X056776Y028500D01*
X056776Y027831D02*
X056776Y027265D01*
X050526Y028665D02*
X050426Y028565D01*
X049860Y028565D01*
X049191Y028565D02*
X048476Y028565D01*
X065526Y039700D02*
X065526Y039815D01*
X065476Y039865D01*
X065476Y040165D01*
X065412Y040429D01*
X065412Y040921D01*
X067726Y042565D02*
X068026Y042165D01*
X068291Y042165D01*
X067726Y042565D02*
X067576Y042565D01*
X067626Y044065D02*
X068226Y045365D01*
X069226Y045365D01*
X069626Y045765D01*
X069626Y046665D01*
X070392Y047138D01*
X068660Y046193D02*
X068126Y046065D01*
X067330Y044249D01*
X067105Y044445D02*
X067226Y044565D01*
X067226Y047215D01*
X066860Y047581D01*
X066860Y047665D01*
X066860Y048600D01*
X066900Y048639D01*
X066900Y048665D01*
X066152Y048665D02*
X064860Y048665D01*
X065526Y047665D02*
X066191Y047665D01*
X066026Y046231D02*
X066026Y045965D01*
X066226Y045765D01*
X066220Y045759D01*
X065805Y045786D02*
X065776Y045815D01*
X065626Y045815D02*
X065609Y045798D01*
X065626Y045815D02*
X065576Y045815D01*
X065251Y046090D02*
X065215Y046054D01*
X065251Y046090D02*
X065226Y046115D01*
X065251Y046090D02*
X065276Y046165D01*
X066770Y044445D02*
X067105Y044445D01*
X062282Y044445D02*
X061846Y044445D01*
X061626Y044715D01*
X061176Y044715D01*
X060960Y044731D01*
X060960Y044715D01*
X072684Y038753D02*
X072684Y038665D01*
X074968Y038665D01*
X074968Y038753D01*
X074968Y038665D02*
X075026Y038665D01*
D45*
X038160Y035531D02*
X037923Y035768D01*
X036126Y034165D02*
X036126Y034065D01*
X036026Y034165D01*
X034126Y034365D02*
X034026Y034165D01*
X033975Y034165D01*
X033975Y034116D01*
X033626Y033765D01*
X033626Y032865D02*
X033591Y032765D01*
X034526Y035665D02*
X034636Y035775D01*
X037026Y038649D02*
X037026Y039565D01*
X036976Y039515D01*
X036326Y040165D01*
X037626Y040165D01*
X037726Y040265D01*
X037026Y039565D01*
X037026Y039465D01*
X036976Y039515D01*
X037026Y039465D02*
X037026Y038965D01*
X037026Y039565D02*
X037026Y040265D01*
X077926Y012365D02*
X078410Y012849D01*
X079226Y012849D01*
X077926Y012365D02*
X077926Y011465D01*
X077226Y010765D01*
X077226Y010865D01*
X079226Y010881D02*
X079226Y009565D01*
X086226Y006265D02*
X086226Y003665D01*
X086226Y006265D02*
X086626Y007065D01*
X058626Y007165D02*
X058626Y003565D01*
X058656Y003595D01*
X058656Y003694D01*
X058626Y007165D02*
X057426Y008365D01*
X053826Y008965D02*
X053326Y008465D01*
X053326Y008365D01*
X052370Y007409D01*
X052370Y003700D01*
X053826Y008965D02*
X053826Y010481D01*
X052926Y011565D02*
X052226Y010865D01*
X052926Y011565D02*
X052926Y012065D01*
X053310Y012449D01*
X053826Y012449D01*
X033656Y008635D02*
X033656Y003694D01*
X033656Y008635D02*
X033626Y008665D01*
X024826Y010865D02*
X024826Y012065D01*
X024526Y012365D01*
X022926Y012365D01*
X022910Y012349D01*
X022826Y012349D01*
X022826Y010381D02*
X022826Y010265D01*
X022426Y009865D01*
X022426Y008765D01*
X006156Y008135D02*
X006156Y003694D01*
X006156Y008135D02*
X005026Y008865D01*
D46*
X005026Y008865D03*
X018026Y016065D03*
X022026Y018065D03*
X022026Y020365D03*
X017526Y022065D03*
X019926Y022665D03*
X022726Y022665D03*
X012926Y023865D03*
X011821Y023878D03*
X032726Y032765D03*
X035126Y032765D03*
X037126Y032465D03*
X036126Y034165D03*
X034526Y035065D03*
X032926Y034165D03*
X034526Y036265D03*
X040826Y033965D03*
X040226Y032465D03*
X037726Y040265D03*
X037026Y040265D03*
X036326Y040265D03*
X033326Y041765D03*
X032726Y043665D03*
X037426Y043665D03*
X027226Y043665D03*
X027226Y042065D03*
X015126Y039465D03*
X015126Y038165D03*
X015126Y035965D03*
X012526Y035365D03*
X011626Y036065D03*
X048226Y022765D03*
X049826Y022165D03*
X050426Y021165D03*
X052226Y020665D03*
X050726Y019665D03*
X049426Y018265D03*
X050626Y016465D03*
X048826Y015665D03*
X045026Y015865D03*
X043026Y016065D03*
X047026Y012865D03*
X045026Y012465D03*
X043626Y012065D03*
X047926Y010265D03*
X047626Y009065D03*
X048026Y007865D03*
X046824Y007909D03*
X045215Y007853D03*
X044102Y007909D03*
X043226Y008865D03*
X044107Y009865D03*
X041026Y008865D03*
X041226Y007856D03*
X039026Y007865D03*
X038442Y008764D03*
X033626Y008665D03*
X032826Y006865D03*
X031626Y006865D03*
X022426Y008765D03*
X034026Y014865D03*
X049226Y013065D03*
X056426Y013465D03*
X057526Y009865D03*
X057026Y009265D03*
X057426Y008365D03*
X053326Y008465D03*
X050626Y007365D03*
X049426Y007265D03*
X063626Y014865D03*
X065626Y012865D03*
X070626Y009865D03*
X069826Y009265D03*
X066226Y008665D03*
X079226Y014765D03*
X079226Y017665D03*
X079226Y020665D03*
X069926Y019665D03*
X063526Y023465D03*
X066226Y024065D03*
X065026Y025265D03*
X065626Y025765D03*
X067426Y030665D03*
X068526Y031265D03*
X069526Y031665D03*
X062026Y032765D03*
X061026Y031865D03*
X054626Y024065D03*
X081726Y010065D03*
X081226Y009465D03*
X084326Y010265D03*
X084026Y007265D03*
X086626Y007065D03*
X090427Y007264D03*
X092926Y009765D03*
X096826Y007065D03*
X102426Y007065D03*
X103040Y009458D03*
X092226Y027765D03*
X097126Y041265D03*
X098926Y042565D03*
X098626Y043165D03*
X098026Y043565D03*
X097326Y044065D03*
X096626Y044458D03*
X089926Y045065D03*
X087926Y042665D03*
X088526Y042265D03*
X089026Y041765D03*
X090626Y048865D03*
X091207Y049282D03*
X089926Y049665D03*
D47*
X064626Y044765D03*
X063626Y044865D03*
X055226Y044365D03*
X048126Y044365D03*
X052126Y037665D03*
X053526Y037665D03*
X054126Y035965D03*
X053826Y035465D03*
X053826Y034865D03*
X053326Y034265D03*
X055026Y034765D03*
X056376Y034665D03*
X056676Y033865D03*
X056626Y033065D03*
X060026Y031565D03*
X056726Y031365D03*
X056526Y030865D03*
X054626Y030565D03*
X052526Y030565D03*
X050926Y030665D03*
X048826Y030165D03*
X048026Y029765D03*
X047026Y030665D03*
X047426Y031465D03*
X044726Y032565D03*
X045226Y033765D03*
X049726Y034365D03*
X051226Y033665D03*
X056726Y037065D03*
X058026Y027965D03*
X059026Y027865D03*
X058526Y023665D03*
X045226Y026765D03*
X044726Y026465D03*
X034026Y023465D03*
X024226Y028665D03*
X023326Y028865D03*
X034526Y035665D03*
X019826Y039665D03*
X019926Y041665D03*
X048226Y017265D03*
X049826Y015665D03*
X050226Y013265D03*
X051126Y013265D03*
X049826Y010065D03*
X050226Y009565D03*
X051126Y008865D03*
X060426Y008065D03*
X061676Y008065D03*
X058026Y014865D03*
X080326Y025965D03*
X079826Y026365D03*
X079126Y026765D03*
X078526Y027165D03*
X078526Y027765D03*
X088526Y032265D03*
X089026Y031565D03*
X089126Y030965D03*
X091926Y032765D03*
X097126Y030965D03*
X099326Y031765D03*
X099226Y032365D03*
X098626Y032765D03*
X098026Y033165D03*
X097626Y033765D03*
X100526Y034065D03*
X095626Y036565D03*
X094392Y036586D03*
X092926Y036565D03*
X090426Y036565D03*
X087426Y036565D03*
X086226Y021265D03*
X103926Y016065D03*
D48*
X036026Y034165D02*
X035077Y034165D01*
X034126Y034365D02*
X034526Y035665D01*
X034636Y035775D02*
X036128Y035775D01*
X034526Y036265D02*
X034526Y035065D01*
X033926Y034165D02*
X032926Y034165D01*
X033626Y033765D02*
X033626Y032865D01*
X033626Y032765D02*
X032726Y032765D01*
X034260Y032765D02*
X035126Y032765D01*
D49*
X037026Y032465D02*
X037126Y032465D01*
X038075Y032465D01*
X037126Y032465D02*
X037126Y033965D01*
X038160Y033965D01*
X038160Y035531D01*
X037923Y035768D02*
X037923Y035775D01*
X039892Y033965D02*
X040826Y033965D01*
X040226Y032465D02*
X039177Y032465D01*
D50*
X011126Y022665D02*
X011042Y022749D01*
X009626Y022749D01*
X011110Y022649D02*
X011126Y022665D01*
X011110Y020781D02*
X009626Y020781D01*
X011110Y020781D02*
X011226Y020665D01*
X011410Y020681D01*
X076326Y022565D02*
X076742Y022165D01*
X076326Y022565D02*
X076326Y023665D01*
X078710Y022165D02*
X079226Y021765D01*
X079226Y020665D01*
X079226Y020565D01*
X103926Y019249D02*
X105326Y018165D01*
X105326Y010965D01*
X105426Y010865D01*
X103926Y016165D02*
X103926Y017281D01*
D51*
X070426Y024065D03*
X069026Y024065D03*
X068026Y024065D03*
X011226Y020665D03*
X011126Y022665D03*
M02*
