%
M48
M72
T01C0.0120
T02C0.0200
T03C0.0240
T04C0.0320
T05C0.0370
T06C0.0400
T07C0.0510
T08C0.0670
T09C0.0870
T10C0.0910
T11C0.1300
T12C0.1500
%
T01
X29026Y15165
X37026Y14165
X40926Y15265
X48226Y17265
X49826Y15665
X50226Y13265
X51126Y13265
X49826Y10065
X50226Y9565
X51126Y8865
X60426Y8065
X61676Y8065
X58026Y14865
X58526Y15265
X58526Y23665
X56776Y27265
X58026Y27965
X59026Y27865
X56576Y29115
X56526Y30865
X56726Y31365
X54626Y30565
X52526Y30565
X50926Y30665
X48826Y30165
X48026Y29765
X48476Y28565
X50526Y28665
X52526Y29115
X53626Y29215
X53626Y27265
X52526Y27265
X47026Y30665
X48026Y31315
X47426Y31465
X44726Y32565
X45876Y33465
X45226Y33765
X47676Y33465
X49726Y34365
X51226Y33665
X51926Y34565
X51226Y35065
X50926Y35865
X47893Y35198
X47976Y37015
X47976Y37615
X45976Y38065
X45976Y37015
X51176Y37665
X52126Y37665
X53526Y37665
X54126Y35965
X53826Y35465
X53826Y34865
X53326Y34265
X55026Y34765
X56376Y34665
X56676Y33865
X56626Y33065
X58726Y35065
X60526Y34965
X56726Y37065
X60226Y38165
X60726Y38465
X60226Y38765
X60726Y39065
X60226Y39365
X60726Y39665
X60226Y39965
X61726Y41365
X63626Y41565
X64126Y42365
X63726Y42665
X63326Y42965
X62926Y43265
X64026Y43765
X64526Y43465
X63526Y44065
X63626Y44865
X64626Y44765
X64726Y46065
X65276Y46165
X66226Y45765
X66926Y45365
X66776Y46865
X65526Y47665
X64826Y47965
X64126Y47165
X63126Y47765
X62726Y47365
X63737Y46254
X61626Y44715
X59726Y44715
X56026Y43365
X55526Y43065
X54926Y42865
X53976Y42265
X54726Y41015
X53876Y40415
X52426Y40965
X52326Y39115
X57126Y41265
X51626Y43465
X50826Y43165
X48126Y44365
X49426Y45265
X55226Y44365
X60426Y47365
X60226Y48265
X63526Y48665
X66126Y43565
X67626Y43665
X67576Y42565
X69526Y42165
X69526Y43765
X65326Y41565
X64826Y41865
X64626Y40365
X63826Y40165
X63826Y39665
X64526Y39665
X65476Y40165
X66926Y40965
X68126Y40165
X68526Y40565
X71726Y38765
X69826Y38665
X67526Y38665
X65526Y38515
X74226Y39965
X74126Y42265
X87426Y36565
X90426Y36565
X92926Y36565
X94392Y36586
X95626Y36565
X100526Y34065
X98026Y33165
X98626Y32765
X99226Y32365
X99326Y31765
X97126Y30965
X97626Y33765
X91926Y32765
X89026Y31565
X89126Y30965
X88526Y32265
X78526Y27765
X78526Y27165
X79126Y26765
X79826Y26365
X80326Y25965
X86226Y21265
X81426Y17465
X97426Y10265
X103926Y16065
X60026Y31565
X45226Y26765
X44726Y26465
X34026Y23465
X24226Y28665
X23326Y28865
X13526Y23165
X34526Y35665
X19826Y39665
X19926Y41665
T02
X85439Y29559
X86227Y29559
X87014Y29559
X87801Y29559
X88589Y29559
X89376Y29559
X90164Y29559
X90951Y29559
X91738Y29559
X92526Y29559
X93313Y29559
X94101Y29559
X94888Y29559
X95675Y29559
X96463Y29559
X97250Y29559
X98038Y29559
X98825Y29559
X99612Y29559
X100400Y29559
X101187Y29559
X101975Y29559
X101975Y28771
X101187Y28771
X100400Y28771
X99612Y28771
X98825Y28771
X98038Y28771
X97250Y28771
X96463Y28771
X95675Y28771
X94888Y28771
X94101Y28771
X93313Y28771
X92526Y28771
X91738Y28771
X90951Y28771
X90164Y28771
X89376Y28771
X88589Y28771
X87801Y28771
X87014Y28771
X86227Y28771
X85439Y28771
T03
X5026Y8865
X18026Y16065
X22026Y18065
X22026Y20365
X17526Y22065
X19926Y22665
X22726Y22665
X12926Y23865
X11821Y23878
X11126Y22665
X11226Y20665
X34026Y14865
X43026Y16065
X45026Y15865
X48826Y15665
X50626Y16465
X49426Y18265
X50726Y19665
X52226Y20665
X50426Y21165
X49826Y22165
X48226Y22765
X54626Y24065
X63526Y23465
X66226Y24065
X68026Y24065
X69026Y24065
X70426Y24065
X65626Y25765
X65026Y25265
X67426Y30665
X68526Y31265
X69526Y31665
X62026Y32765
X61026Y31865
X40826Y33965
X40226Y32465
X37126Y32465
X35126Y32765
X32726Y32765
X32926Y34165
X34526Y35065
X36126Y34165
X34526Y36265
X36326Y40265
X37026Y40265
X37726Y40265
X33326Y41765
X32726Y43665
X37426Y43665
X27226Y43665
X27226Y42065
X15126Y39465
X15126Y38165
X15126Y35965
X12526Y35365
X11626Y36065
X56426Y13465
X49226Y13065
X47026Y12865
X45026Y12465
X43626Y12065
X47926Y10265
X47626Y9065
X48026Y7865
X46824Y7909
X45215Y7853
X44102Y7909
X43226Y8865
X44107Y9865
X41026Y8865
X41226Y7856
X39026Y7865
X38442Y8764
X33626Y8665
X32826Y6865
X31626Y6865
X22426Y8765
X49426Y7265
X50626Y7365
X53326Y8465
X57026Y9265
X57526Y9865
X57426Y8365
X66226Y8665
X69826Y9265
X70626Y9865
X74526Y10365
X74926Y8865
X79226Y9565
X81226Y9465
X81726Y10065
X84326Y10265
X84026Y7265
X86626Y7065
X90427Y7264
X92926Y9765
X96826Y7065
X102426Y7065
X103040Y9458
X79226Y14765
X79226Y17665
X79226Y20665
X69926Y19665
X63626Y14865
X65626Y12865
X92226Y27765
X97126Y41265
X98926Y42565
X98626Y43165
X98026Y43565
X97326Y44065
X96626Y44458
X89926Y45065
X87926Y42665
X88526Y42265
X89026Y41765
X90626Y48865
X91207Y49282
X89926Y49665
T04
X102026Y32665
X102026Y31565
X104026Y31565
X104026Y32665
X76326Y25665
X76326Y23665
X76026Y20665
X75026Y20665
X74026Y20665
X73026Y20665
X72026Y20665
X71026Y20665
X70026Y20665
X69026Y20665
X68026Y20665
X67026Y20665
X63526Y20665
X62526Y20665
X61526Y20665
X60526Y20665
X59526Y20665
X58526Y20665
X57526Y20665
X56526Y20665
X55526Y20665
X54526Y20665
X54526Y17665
X55526Y17665
X56526Y17665
X57526Y17665
X58526Y17665
X59526Y17665
X60526Y17665
X61526Y17665
X62526Y17665
X63526Y17665
X67026Y17665
X68026Y17665
X69026Y17665
X70026Y17665
X71026Y17665
X72026Y17665
X73026Y17665
X74026Y17665
X75026Y17665
X76026Y17665
X76026Y14665
X75026Y14665
X74026Y14665
X73026Y14665
X72026Y14665
X71026Y14665
X70026Y14665
X69026Y14665
X68026Y14665
X67026Y14665
X67026Y11665
X68026Y11665
X69026Y11665
X70026Y11665
X71026Y11665
X72026Y11665
X73026Y11665
X74026Y11665
X75026Y11665
X76026Y11665
X77226Y10865
X77226Y8865
X82526Y11665
X83526Y11665
X84526Y11665
X85526Y11665
X86526Y11665
X87526Y11665
X88526Y11665
X89526Y11665
X90526Y11665
X91526Y11665
X95026Y11665
X96026Y11665
X97026Y11665
X98026Y11665
X99026Y11665
X100026Y11665
X101026Y11665
X102026Y11665
X103026Y11665
X104026Y11665
X105426Y10865
X105426Y8865
X104026Y14665
X103026Y14665
X102026Y14665
X101026Y14665
X100026Y14665
X99026Y14665
X98026Y14665
X97026Y14665
X96026Y14665
X95026Y14665
X91526Y14665
X90526Y14665
X89526Y14665
X88526Y14665
X87526Y14665
X86526Y14665
X85526Y14665
X84526Y14665
X83526Y14665
X82526Y14665
X52226Y10865
X52226Y8865
X46526Y11165
X45526Y11165
X44526Y11165
X43526Y11165
X42526Y11165
X41526Y11165
X40526Y11165
X39526Y11165
X39526Y14165
X40526Y14165
X41526Y14165
X42526Y14165
X43526Y14165
X44526Y14165
X45526Y14165
X46526Y14165
X46526Y17665
X45526Y17665
X44526Y17665
X43526Y17665
X42526Y17665
X41526Y17665
X40526Y17665
X39526Y17665
X38526Y17665
X37526Y17665
X34026Y17665
X33026Y17665
X32026Y17665
X31026Y17665
X30026Y17665
X29026Y17665
X28026Y17665
X27026Y17665
X26026Y17665
X25026Y17665
X20526Y17665
X19526Y17665
X18526Y17665
X17526Y17665
X16526Y17665
X15526Y17665
X14526Y17665
X13526Y17665
X13526Y20665
X14526Y20665
X15526Y20665
X16526Y20665
X17526Y20665
X18526Y20665
X19526Y20665
X20526Y20665
X25026Y20665
X26026Y20665
X27026Y20665
X28026Y20665
X29026Y20665
X30026Y20665
X31026Y20665
X32026Y20665
X33026Y20665
X34026Y20665
X37526Y20665
X38526Y20665
X39526Y20665
X40526Y20665
X41526Y20665
X42526Y20665
X43526Y20665
X44526Y20665
X45526Y20665
X46526Y20665
X34826Y23665
X33226Y23665
X33226Y25665
X34826Y25665
X24826Y10865
X24826Y8865
T05
X23018Y46311
X23018Y47098
X22034Y47098
X22034Y46311
T06
X28026Y47665
X29026Y47665
X32026Y47665
X33026Y47665
X36026Y47665
X37026Y47665
X41526Y47565
X42526Y47565
X43526Y47565
X44526Y47565
X45526Y47565
X46526Y47565
X47526Y47565
X48526Y47565
X49526Y47565
X50526Y47565
X50526Y48565
X49526Y48565
X48526Y48565
X47526Y48565
X46526Y48565
X45526Y48565
X44526Y48565
X43526Y48565
X42526Y48565
X41526Y48565
X41326Y40265
X42326Y40265
X43326Y40265
X44326Y40265
X45326Y40265
X40326Y40265
X14186Y44665
X13106Y44665
X12026Y44665
X10946Y44665
X9866Y44665
X10406Y45665
X11486Y45665
X12566Y45665
X13646Y45665
T07
X84589Y47547
X102463Y47547
T08
X101152Y37665
X85900Y37665
T09
X85900Y36484
X101152Y36484
T10
X24896Y48165
X20156Y48165
T11
X16956Y45165
X7096Y45165
T12
X4026Y48665
X104526Y48665
M30
