G75*
G70*
%OFA0B0*%
%FSLAX24Y24*%
%IPPOS*%
%LPD*%
%AMOC8*
5,1,8,0,0,1.08239X$1,22.5*
%
%ADD10O,0.0600X0.1200*%
%ADD11O,0.0520X0.1040*%
%ADD12R,0.0800X0.5125*%
%ADD13OC8,0.0630*%
%ADD14OC8,0.0600*%
%ADD15C,0.2000*%
%ADD16OC8,0.0574*%
%ADD17C,0.0400*%
%ADD18C,0.0280*%
%ADD19R,0.0400X0.0400*%
%ADD20C,0.0400*%
%ADD21C,0.0160*%
%ADD22R,0.0280X0.0280*%
%ADD23R,0.0396X0.0396*%
%ADD24C,0.0320*%
%ADD25C,0.0100*%
%ADD26C,0.0660*%
%ADD27C,0.0500*%
D10*
X040326Y040265D03*
X041326Y040265D03*
X042326Y040265D03*
X043326Y040265D03*
X044326Y040265D03*
X045326Y040265D03*
X037026Y047665D03*
X036026Y047665D03*
X033026Y047665D03*
X032026Y047665D03*
X029026Y047665D03*
X028026Y047665D03*
D11*
X028026Y020665D03*
X029026Y020665D03*
X030026Y020665D03*
X031026Y020665D03*
X032026Y020665D03*
X033026Y020665D03*
X034026Y020665D03*
X037526Y020665D03*
X038526Y020665D03*
X039526Y020665D03*
X040526Y020665D03*
X041526Y020665D03*
X042526Y020665D03*
X043526Y020665D03*
X044526Y020665D03*
X045526Y020665D03*
X046526Y020665D03*
X046526Y017665D03*
X045526Y017665D03*
X044526Y017665D03*
X043526Y017665D03*
X042526Y017665D03*
X041526Y017665D03*
X040526Y017665D03*
X039526Y017665D03*
X038526Y017665D03*
X037526Y017665D03*
X034026Y017665D03*
X033026Y017665D03*
X032026Y017665D03*
X031026Y017665D03*
X030026Y017665D03*
X029026Y017665D03*
X028026Y017665D03*
X027026Y017665D03*
X026026Y017665D03*
X025026Y017665D03*
X020526Y017665D03*
X019526Y017665D03*
X018526Y017665D03*
X017526Y017665D03*
X016526Y017665D03*
X015526Y017665D03*
X014526Y017665D03*
X013526Y017665D03*
X013526Y020665D03*
X014526Y020665D03*
X015526Y020665D03*
X016526Y020665D03*
X017526Y020665D03*
X018526Y020665D03*
X019526Y020665D03*
X020526Y020665D03*
X025026Y020665D03*
X026026Y020665D03*
X027026Y020665D03*
X039526Y014165D03*
X040526Y014165D03*
X041526Y014165D03*
X042526Y014165D03*
X043526Y014165D03*
X044526Y014165D03*
X045526Y014165D03*
X046526Y014165D03*
X046526Y011165D03*
X045526Y011165D03*
X044526Y011165D03*
X043526Y011165D03*
X042526Y011165D03*
X041526Y011165D03*
X040526Y011165D03*
X039526Y011165D03*
X054526Y017665D03*
X055526Y017665D03*
X056526Y017665D03*
X057526Y017665D03*
X058526Y017665D03*
X059526Y017665D03*
X060526Y017665D03*
X061526Y017665D03*
X062526Y017665D03*
X063526Y017665D03*
X067026Y017665D03*
X068026Y017665D03*
X069026Y017665D03*
X070026Y017665D03*
X071026Y017665D03*
X072026Y017665D03*
X073026Y017665D03*
X074026Y017665D03*
X075026Y017665D03*
X076026Y017665D03*
X076026Y014665D03*
X075026Y014665D03*
X074026Y014665D03*
X073026Y014665D03*
X072026Y014665D03*
X071026Y014665D03*
X070026Y014665D03*
X069026Y014665D03*
X068026Y014665D03*
X067026Y014665D03*
X067026Y011665D03*
X068026Y011665D03*
X069026Y011665D03*
X070026Y011665D03*
X071026Y011665D03*
X072026Y011665D03*
X073026Y011665D03*
X074026Y011665D03*
X075026Y011665D03*
X076026Y011665D03*
X082526Y011665D03*
X083526Y011665D03*
X084526Y011665D03*
X085526Y011665D03*
X086526Y011665D03*
X087526Y011665D03*
X088526Y011665D03*
X089526Y011665D03*
X090526Y011665D03*
X091526Y011665D03*
X095026Y011665D03*
X096026Y011665D03*
X097026Y011665D03*
X098026Y011665D03*
X099026Y011665D03*
X100026Y011665D03*
X101026Y011665D03*
X102026Y011665D03*
X103026Y011665D03*
X104026Y011665D03*
X104026Y014665D03*
X103026Y014665D03*
X102026Y014665D03*
X101026Y014665D03*
X100026Y014665D03*
X099026Y014665D03*
X098026Y014665D03*
X097026Y014665D03*
X096026Y014665D03*
X095026Y014665D03*
X091526Y014665D03*
X090526Y014665D03*
X089526Y014665D03*
X088526Y014665D03*
X087526Y014665D03*
X086526Y014665D03*
X085526Y014665D03*
X084526Y014665D03*
X083526Y014665D03*
X082526Y014665D03*
X076026Y020665D03*
X075026Y020665D03*
X074026Y020665D03*
X073026Y020665D03*
X072026Y020665D03*
X071026Y020665D03*
X070026Y020665D03*
X069026Y020665D03*
X068026Y020665D03*
X067026Y020665D03*
X063526Y020665D03*
X062526Y020665D03*
X061526Y020665D03*
X060526Y020665D03*
X059526Y020665D03*
X058526Y020665D03*
X057526Y020665D03*
X056526Y020665D03*
X055526Y020665D03*
X054526Y020665D03*
D12*
X003681Y003684D03*
X004886Y003694D03*
X006156Y003694D03*
X007406Y003694D03*
X008656Y003684D03*
X009896Y003684D03*
X011156Y003694D03*
X012396Y003694D03*
X013656Y003694D03*
X014906Y003684D03*
X016156Y003684D03*
X017396Y003674D03*
X018636Y003674D03*
X019896Y003694D03*
X021146Y003694D03*
X022396Y003684D03*
X023641Y003684D03*
X024870Y003693D03*
X031181Y003684D03*
X032386Y003694D03*
X033656Y003694D03*
X034906Y003694D03*
X036156Y003684D03*
X037396Y003684D03*
X038656Y003694D03*
X039896Y003694D03*
X041156Y003694D03*
X042406Y003684D03*
X043656Y003684D03*
X044896Y003674D03*
X046136Y003674D03*
X047396Y003694D03*
X048646Y003694D03*
X049896Y003684D03*
X051141Y003684D03*
X052370Y003693D03*
X056181Y003684D03*
X057386Y003694D03*
X058656Y003694D03*
X059906Y003694D03*
X061156Y003684D03*
X062396Y003684D03*
X063656Y003694D03*
X064896Y003694D03*
X066156Y003694D03*
X067406Y003684D03*
X068656Y003684D03*
X069896Y003674D03*
X071136Y003674D03*
X072396Y003694D03*
X073646Y003694D03*
X074896Y003684D03*
X076141Y003684D03*
X077370Y003693D03*
X083681Y003684D03*
X084886Y003694D03*
X086156Y003694D03*
X087406Y003694D03*
X088656Y003684D03*
X089896Y003684D03*
X091156Y003694D03*
X092396Y003694D03*
X093656Y003694D03*
X094906Y003684D03*
X096156Y003684D03*
X097396Y003674D03*
X098636Y003674D03*
X099896Y003694D03*
X101146Y003694D03*
X102396Y003684D03*
X103641Y003684D03*
X104870Y003693D03*
D13*
X105426Y008865D03*
X105426Y010865D03*
X077226Y010865D03*
X077226Y008865D03*
X052226Y008865D03*
X052226Y010865D03*
X034826Y023665D03*
X033226Y023665D03*
X033226Y025665D03*
X034826Y025665D03*
X024826Y010865D03*
X024826Y008865D03*
X076326Y023665D03*
X076326Y025665D03*
X102026Y031565D03*
X102026Y032665D03*
X104026Y032665D03*
X104026Y031565D03*
D14*
X050526Y047565D03*
X049526Y047565D03*
X048526Y047565D03*
X047526Y047565D03*
X046526Y047565D03*
X045526Y047565D03*
X044526Y047565D03*
X043526Y047565D03*
X042526Y047565D03*
X041526Y047565D03*
X041526Y048565D03*
X042526Y048565D03*
X043526Y048565D03*
X044526Y048565D03*
X045526Y048565D03*
X046526Y048565D03*
X047526Y048565D03*
X048526Y048565D03*
X049526Y048565D03*
X050526Y048565D03*
X014186Y044665D03*
X013106Y044665D03*
X012026Y044665D03*
X010946Y044665D03*
X009866Y044665D03*
X010406Y045665D03*
X011486Y045665D03*
X012566Y045665D03*
X013646Y045665D03*
D15*
X016956Y045165D03*
X007096Y045165D03*
D16*
X022034Y046311D03*
X022034Y047098D03*
X023018Y047098D03*
X023018Y046311D03*
D17*
X085439Y029559D03*
X086227Y029559D03*
X087014Y029559D03*
X087801Y029559D03*
X088589Y029559D03*
X089376Y029559D03*
X090164Y029559D03*
X090951Y029559D03*
X091738Y029559D03*
X092526Y029559D03*
X093313Y029559D03*
X094101Y029559D03*
X094888Y029559D03*
X095675Y029559D03*
X096463Y029559D03*
X097250Y029559D03*
X098038Y029559D03*
X098825Y029559D03*
X099612Y029559D03*
X100400Y029559D03*
X101187Y029559D03*
X101975Y029559D03*
X101975Y028771D03*
X101187Y028771D03*
X100400Y028771D03*
X099612Y028771D03*
X098825Y028771D03*
X098038Y028771D03*
X097250Y028771D03*
X096463Y028771D03*
X095675Y028771D03*
X094888Y028771D03*
X094101Y028771D03*
X093313Y028771D03*
X092526Y028771D03*
X091738Y028771D03*
X090951Y028771D03*
X090164Y028771D03*
X089376Y028771D03*
X088589Y028771D03*
X087801Y028771D03*
X087014Y028771D03*
X086227Y028771D03*
X085439Y028771D03*
X074526Y010365D03*
X074926Y008865D03*
X079226Y009565D03*
D18*
X081426Y017465D03*
X097426Y010265D03*
X058526Y015265D03*
X040926Y015265D03*
X037026Y014165D03*
X029026Y015165D03*
X013526Y023165D03*
X045876Y033465D03*
X047676Y033465D03*
X047893Y035198D03*
X050926Y035865D03*
X051226Y035065D03*
X051926Y034565D03*
X047976Y037015D03*
X047976Y037615D03*
X045976Y038065D03*
X045976Y037015D03*
X051176Y037665D03*
X052326Y039115D03*
X053876Y040415D03*
X054726Y041015D03*
X053976Y042265D03*
X054926Y042865D03*
X055526Y043065D03*
X056026Y043365D03*
X057126Y041265D03*
X060226Y039965D03*
X060726Y039665D03*
X060226Y039365D03*
X060726Y039065D03*
X060226Y038765D03*
X060726Y038465D03*
X060226Y038165D03*
X063826Y039665D03*
X063826Y040165D03*
X064626Y040365D03*
X065476Y040165D03*
X064526Y039665D03*
X065526Y038515D03*
X067526Y038665D03*
X069826Y038665D03*
X071726Y038765D03*
X074226Y039965D03*
X074126Y042265D03*
X069526Y042165D03*
X067576Y042565D03*
X067626Y043665D03*
X066126Y043565D03*
X064526Y043465D03*
X064026Y043765D03*
X063526Y044065D03*
X062926Y043265D03*
X063326Y042965D03*
X063726Y042665D03*
X064126Y042365D03*
X064826Y041865D03*
X065326Y041565D03*
X066926Y040965D03*
X068126Y040165D03*
X068526Y040565D03*
X063626Y041565D03*
X061726Y041365D03*
X061626Y044715D03*
X059726Y044715D03*
X063737Y046254D03*
X064726Y046065D03*
X065276Y046165D03*
X066226Y045765D03*
X066926Y045365D03*
X066776Y046865D03*
X065526Y047665D03*
X064826Y047965D03*
X064126Y047165D03*
X063126Y047765D03*
X062726Y047365D03*
X063526Y048665D03*
X060226Y048265D03*
X060426Y047365D03*
X051626Y043465D03*
X050826Y043165D03*
X049426Y045265D03*
X052426Y040965D03*
X058726Y035065D03*
X060526Y034965D03*
X056576Y029115D03*
X056776Y027265D03*
X053626Y027265D03*
X052526Y027265D03*
X050526Y028665D03*
X052526Y029115D03*
X053626Y029215D03*
X048476Y028565D03*
X048026Y031315D03*
X069526Y043765D03*
D19*
X087926Y042665D03*
X088526Y042265D03*
X089026Y041765D03*
X089926Y045065D03*
X090626Y048865D03*
X091207Y049282D03*
X089926Y049665D03*
X096626Y044458D03*
X097326Y044065D03*
X098026Y043565D03*
X098626Y043165D03*
X098926Y042565D03*
X097126Y041265D03*
X092226Y027765D03*
X079226Y020665D03*
X079226Y017665D03*
X079226Y014765D03*
X081726Y010065D03*
X081226Y009465D03*
X084326Y010265D03*
X084026Y007265D03*
X086626Y007065D03*
X090427Y007264D03*
X092926Y009765D03*
X096826Y007065D03*
X102426Y007065D03*
X103040Y009458D03*
X070626Y009865D03*
X069826Y009265D03*
X066226Y008665D03*
X065626Y012865D03*
X063626Y014865D03*
X056426Y013465D03*
X050626Y016465D03*
X048826Y015665D03*
X045026Y015865D03*
X043026Y016065D03*
X047026Y012865D03*
X045026Y012465D03*
X043626Y012065D03*
X047926Y010265D03*
X047626Y009065D03*
X048026Y007865D03*
X046824Y007909D03*
X045215Y007853D03*
X044102Y007909D03*
X043226Y008865D03*
X044107Y009865D03*
X041026Y008865D03*
X041226Y007856D03*
X039026Y007865D03*
X038442Y008764D03*
X033626Y008665D03*
X032826Y006865D03*
X031626Y006865D03*
X022426Y008765D03*
X034026Y014865D03*
X022026Y018065D03*
X022026Y020365D03*
X017526Y022065D03*
X019926Y022665D03*
X022726Y022665D03*
X012926Y023865D03*
X011821Y023878D03*
X018026Y016065D03*
X005026Y008865D03*
X048226Y022765D03*
X049826Y022165D03*
X050426Y021165D03*
X052226Y020665D03*
X050726Y019665D03*
X049426Y018265D03*
X049226Y013065D03*
X057026Y009265D03*
X057526Y009865D03*
X057426Y008365D03*
X053326Y008465D03*
X050626Y007365D03*
X049426Y007265D03*
X069926Y019665D03*
X063526Y023465D03*
X066226Y024065D03*
X065026Y025265D03*
X065626Y025765D03*
X067426Y030665D03*
X068526Y031265D03*
X069526Y031665D03*
X062026Y032765D03*
X061026Y031865D03*
X054626Y024065D03*
X040226Y032465D03*
X040826Y033965D03*
X037126Y032465D03*
X035126Y032765D03*
X032726Y032765D03*
X032926Y034165D03*
X034526Y035065D03*
X036126Y034165D03*
X034526Y036265D03*
X036326Y040265D03*
X037026Y040265D03*
X037726Y040265D03*
X033326Y041765D03*
X032726Y043665D03*
X037426Y043665D03*
X027226Y043665D03*
X027226Y042065D03*
X015126Y039465D03*
X015126Y038165D03*
X015126Y035965D03*
X012526Y035365D03*
X011626Y036065D03*
D20*
X022426Y008765D02*
X022396Y008735D01*
X022396Y003684D01*
X024870Y003693D02*
X024826Y005865D01*
X024826Y008865D01*
X049426Y007265D02*
X049896Y006995D01*
X049926Y006965D01*
X049896Y006995D02*
X049896Y003684D01*
X052370Y003693D02*
X052426Y005865D01*
X052170Y005921D01*
X052170Y008865D01*
X074926Y008865D02*
X074896Y003684D01*
X077370Y003693D02*
X077370Y005921D01*
X077226Y006065D01*
X077226Y008865D01*
X102396Y007035D02*
X102396Y003684D01*
X104870Y003693D02*
X104870Y007309D01*
X105426Y008865D01*
D21*
X102426Y007065D02*
X102396Y007035D01*
X016526Y016265D02*
X016526Y017665D01*
X016526Y016265D02*
X016126Y015865D01*
X007526Y015865D01*
X006156Y014495D01*
X006156Y003694D01*
X011821Y023878D02*
X011791Y023930D01*
D22*
X023326Y028865D03*
X024226Y028665D03*
X034026Y023465D03*
X044726Y026465D03*
X045226Y026765D03*
X048026Y029765D03*
X048826Y030165D03*
X047026Y030665D03*
X047426Y031465D03*
X044726Y032565D03*
X045226Y033765D03*
X049726Y034365D03*
X051226Y033665D03*
X053326Y034265D03*
X053826Y034865D03*
X053826Y035465D03*
X054126Y035965D03*
X055026Y034765D03*
X056376Y034665D03*
X056676Y033865D03*
X056626Y033065D03*
X060026Y031565D03*
X056726Y031365D03*
X056526Y030865D03*
X054626Y030565D03*
X052526Y030565D03*
X050926Y030665D03*
X058026Y027965D03*
X059026Y027865D03*
X058526Y023665D03*
X048226Y017265D03*
X049826Y015665D03*
X050226Y013265D03*
X051126Y013265D03*
X049826Y010065D03*
X050226Y009565D03*
X051126Y008865D03*
X060426Y008065D03*
X061676Y008065D03*
X058026Y014865D03*
X080326Y025965D03*
X079826Y026365D03*
X079126Y026765D03*
X078526Y027165D03*
X078526Y027765D03*
X088526Y032265D03*
X089026Y031565D03*
X089126Y030965D03*
X091926Y032765D03*
X097126Y030965D03*
X099326Y031765D03*
X099226Y032365D03*
X098626Y032765D03*
X098026Y033165D03*
X097626Y033765D03*
X100526Y034065D03*
X095626Y036565D03*
X094392Y036586D03*
X092926Y036565D03*
X090426Y036565D03*
X087426Y036565D03*
X064626Y044765D03*
X063626Y044865D03*
X055226Y044365D03*
X048126Y044365D03*
X052126Y037665D03*
X053526Y037665D03*
X056726Y037065D03*
X034526Y035665D03*
X019826Y039665D03*
X019926Y041665D03*
X086226Y021265D03*
X103926Y016065D03*
D23*
X070426Y024065D03*
X069026Y024065D03*
X068026Y024065D03*
X011226Y020665D03*
X011126Y022665D03*
D24*
X013026Y022665D01*
X013526Y023165D01*
X013526Y020665D02*
X011226Y020665D01*
D25*
X016526Y020665D02*
X016526Y022265D01*
X016926Y022665D01*
X019926Y022665D01*
X020726Y022665D02*
X019526Y021465D01*
X019526Y020665D01*
X019526Y020565D01*
X020526Y020665D02*
X021826Y020665D01*
X022026Y020465D01*
X022026Y020365D01*
X018026Y019665D02*
X018026Y016065D01*
X017526Y017665D02*
X017026Y018165D01*
X017026Y021565D01*
X017526Y022065D01*
X017526Y020665D02*
X017526Y020165D01*
X018026Y019665D01*
X020726Y022665D02*
X022726Y022665D01*
X027926Y020765D02*
X028026Y020665D01*
X028526Y020065D01*
X028526Y016265D01*
X029226Y015665D01*
X030326Y015665D01*
X031181Y014810D01*
X031181Y003684D01*
X032386Y003694D02*
X032386Y014805D01*
X030526Y016665D01*
X030526Y019265D01*
X030126Y019665D01*
X030126Y020465D01*
X030026Y020565D01*
X030026Y020665D01*
X029526Y021465D02*
X029926Y021865D01*
X030626Y021865D01*
X031026Y021465D01*
X031026Y020665D01*
X032026Y020665D02*
X032026Y018865D01*
X032496Y018295D01*
X032496Y015395D01*
X032826Y015065D01*
X032826Y006865D01*
X031781Y007220D02*
X031781Y014420D01*
X031781Y014810D01*
X029526Y017065D01*
X029526Y021465D01*
X033026Y020665D02*
X033026Y019765D01*
X033326Y019465D01*
X034326Y019465D01*
X034626Y019165D01*
X034626Y012165D01*
X035126Y011665D01*
X036426Y011665D01*
X036796Y011395D01*
X036796Y007895D01*
X037426Y007265D01*
X037396Y003684D01*
X038656Y003694D02*
X038656Y007035D01*
X038026Y007465D01*
X038026Y015465D01*
X038026Y018065D01*
X037526Y018565D01*
X037526Y020665D01*
X038526Y020665D02*
X038526Y018565D01*
X039026Y018065D01*
X039026Y017065D01*
X038526Y016565D01*
X038526Y008965D01*
X038826Y009165D02*
X038826Y016365D01*
X039026Y016565D01*
X039426Y016565D01*
X040026Y017165D01*
X040026Y018065D01*
X039526Y018565D01*
X039526Y020665D01*
X040526Y020665D02*
X040526Y018565D01*
X041026Y018065D01*
X041026Y016265D01*
X041626Y015865D01*
X042026Y015665D01*
X042026Y008465D01*
X041226Y007865D01*
X041226Y007856D01*
X041026Y008865D02*
X041026Y011965D01*
X040526Y012465D01*
X040526Y014165D01*
X043026Y015165D02*
X043526Y015665D01*
X044026Y016265D01*
X044026Y018065D01*
X043526Y018565D01*
X043526Y020665D01*
X044526Y020665D02*
X044526Y018565D01*
X045026Y018065D01*
X045026Y015865D01*
X046026Y015865D02*
X046226Y015665D01*
X048026Y015665D01*
X048646Y015045D01*
X048646Y003694D01*
X047396Y003694D02*
X047396Y008835D01*
X047626Y009065D01*
X048226Y008465D02*
X048026Y007865D01*
X048226Y008465D02*
X048226Y009865D01*
X047926Y010265D01*
X047026Y010665D02*
X047026Y012865D01*
X046026Y012665D02*
X045526Y013165D01*
X044026Y013165D01*
X043526Y013665D01*
X043526Y014165D01*
X043026Y015165D02*
X043026Y010165D01*
X042406Y009545D01*
X042406Y003684D01*
X043656Y003684D02*
X043656Y007035D01*
X043226Y007465D01*
X043226Y008865D01*
X044102Y007909D02*
X044107Y009865D01*
X044626Y010265D02*
X044626Y007465D01*
X044896Y007195D01*
X044896Y003674D01*
X046136Y003674D02*
X046136Y010555D01*
X046026Y010665D01*
X046026Y012665D01*
X045026Y012465D02*
X045026Y010665D01*
X045226Y010465D01*
X045226Y007865D01*
X045215Y007853D01*
X046824Y007909D02*
X046826Y008265D01*
X046826Y010465D01*
X047026Y010665D01*
X044626Y010265D02*
X044026Y010865D01*
X044026Y011865D01*
X043826Y012065D01*
X043626Y012065D01*
X049826Y010065D02*
X049826Y015665D01*
X048826Y015665D02*
X048826Y026665D01*
X047026Y028465D01*
X047026Y030665D01*
X048826Y030165D02*
X048826Y028465D01*
X050426Y026765D01*
X050426Y021165D01*
X049826Y022165D02*
X049826Y026765D01*
X048026Y028515D01*
X048026Y029765D01*
X047426Y028665D02*
X047426Y031465D01*
X044726Y032565D02*
X044726Y026465D01*
X045226Y026765D02*
X045226Y033765D01*
X043426Y034365D02*
X049726Y034365D01*
X049926Y034865D02*
X050626Y034165D01*
X050626Y033365D01*
X050926Y033165D01*
X052426Y033165D01*
X052726Y033465D01*
X052726Y034765D01*
X053226Y035265D01*
X053426Y035865D01*
X054126Y036465D01*
X055426Y036465D01*
X056026Y035865D01*
X056026Y034865D01*
X056376Y034665D01*
X056826Y034465D02*
X056226Y034065D01*
X056226Y031565D01*
X056726Y031365D01*
X060026Y031565D02*
X060026Y019265D01*
X059526Y018865D01*
X059526Y017665D01*
X060526Y017665D02*
X060526Y018665D01*
X061026Y019165D01*
X061026Y031865D01*
X062026Y032765D02*
X062026Y019065D01*
X061526Y018565D01*
X061526Y017665D01*
X060026Y018765D02*
X060026Y015665D01*
X061026Y014265D01*
X061026Y005465D01*
X061156Y005335D01*
X061156Y003684D01*
X062396Y003684D02*
X062396Y005435D01*
X062426Y005465D01*
X062426Y007265D01*
X062826Y007665D01*
X068826Y007665D01*
X069226Y008065D01*
X069226Y009665D01*
X069526Y010065D01*
X069526Y018065D01*
X069026Y018565D01*
X069026Y020665D01*
X069026Y024065D01*
X068026Y024065D02*
X068026Y020665D01*
X068026Y018565D01*
X068526Y018065D01*
X068526Y008365D01*
X068226Y008065D01*
X061676Y008065D01*
X060426Y008065D02*
X059826Y007465D01*
X059826Y005865D01*
X059906Y005785D01*
X059906Y003694D01*
X058656Y003694D02*
X058656Y005835D01*
X058626Y005865D01*
X058626Y014665D01*
X059026Y015065D01*
X059026Y018865D01*
X059526Y019265D01*
X059526Y020665D01*
X060526Y020665D02*
X060526Y019265D01*
X060026Y018765D01*
X059026Y019365D02*
X058026Y018665D01*
X058026Y014865D01*
X057526Y015665D02*
X056026Y017165D01*
X056026Y018865D01*
X056526Y019365D01*
X056526Y020665D01*
X055526Y020665D02*
X055426Y020465D01*
X055426Y019465D01*
X055026Y019065D01*
X055026Y017265D01*
X057026Y015265D01*
X057026Y009265D01*
X057526Y009865D02*
X057526Y015665D01*
X056426Y015065D02*
X056426Y013465D01*
X056426Y015065D02*
X054626Y016865D01*
X053926Y016865D01*
X052226Y020665D01*
X052226Y021465D01*
X050926Y022765D01*
X050926Y030665D01*
X047426Y028665D02*
X049426Y026765D01*
X049426Y018265D01*
X048226Y017265D02*
X048226Y022765D01*
X046526Y021065D02*
X046526Y020665D01*
X046526Y021065D02*
X046226Y021365D01*
X034726Y021365D01*
X034026Y020665D01*
X042526Y020665D02*
X042526Y018565D01*
X043026Y018065D01*
X043026Y016065D01*
X046026Y015865D02*
X046026Y018065D01*
X045526Y018565D01*
X045526Y020665D01*
X050626Y016465D02*
X050626Y007365D01*
X051126Y008865D02*
X051126Y013265D01*
X050226Y013265D02*
X050226Y009565D01*
X052170Y008865D02*
X052226Y008865D01*
X065026Y011865D02*
X065026Y025265D01*
X065626Y025765D02*
X065626Y012865D01*
X065026Y011865D02*
X065326Y011665D01*
X067026Y011665D01*
X067526Y009465D02*
X066226Y008665D01*
X067526Y009465D02*
X067526Y018065D01*
X067026Y018565D01*
X067026Y020665D01*
X070026Y020665D02*
X070026Y020265D01*
X070826Y019465D01*
X080426Y019465D01*
X080926Y018965D01*
X080926Y017065D01*
X081726Y016065D01*
X081726Y010065D01*
X081226Y009465D02*
X081226Y015965D01*
X080626Y016765D01*
X080626Y018665D01*
X080226Y019065D01*
X070426Y019065D01*
X069926Y019665D01*
X070026Y020665D02*
X070026Y023765D01*
X070326Y024065D01*
X070426Y024065D01*
X066226Y024065D02*
X066226Y018165D01*
X067026Y017665D01*
X067426Y018565D02*
X068026Y018065D01*
X068026Y017665D01*
X069026Y017665D02*
X069026Y018065D01*
X068526Y018565D01*
X068526Y031265D01*
X069526Y031665D02*
X069526Y018565D01*
X070026Y018065D01*
X070026Y017665D01*
X067426Y018565D02*
X067426Y030665D01*
X059026Y027865D02*
X059026Y019365D01*
X058026Y019765D02*
X058026Y024865D01*
X057726Y025165D01*
X056226Y025165D01*
X055826Y025565D01*
X055826Y035565D01*
X055526Y035865D01*
X054226Y035865D01*
X054126Y035965D01*
X054026Y035565D02*
X053826Y035465D01*
X054026Y035565D02*
X055326Y035565D01*
X055626Y035265D01*
X055626Y025465D01*
X057026Y024065D01*
X057026Y019265D01*
X056526Y018765D01*
X056526Y017665D01*
X057526Y017665D02*
X057526Y019265D01*
X058026Y019765D01*
X056026Y019365D02*
X056026Y024765D01*
X055426Y025365D01*
X055426Y035065D01*
X055226Y035265D01*
X054326Y035265D01*
X053826Y034865D01*
X053326Y034265D02*
X053326Y024665D01*
X054626Y024065D01*
X058026Y025365D02*
X058526Y024965D01*
X058526Y023665D01*
X058026Y025365D02*
X058026Y027965D01*
X052226Y033965D02*
X051526Y033965D01*
X049926Y035665D01*
X046926Y035665D01*
X047026Y035665D01*
X046926Y035665D02*
X044526Y035665D01*
X044326Y035865D01*
X044326Y040265D01*
X043326Y040265D02*
X043326Y035965D01*
X044026Y035265D01*
X047326Y035265D01*
X047526Y035465D01*
X049726Y035465D01*
X051226Y033865D01*
X051226Y033665D01*
X052226Y033965D02*
X052426Y034165D01*
X052426Y034765D01*
X053026Y035365D01*
X053226Y035965D01*
X054126Y036765D01*
X055526Y036765D01*
X056826Y035565D01*
X056826Y034465D01*
X055026Y034765D02*
X055026Y019465D01*
X054526Y018965D01*
X054526Y017665D01*
X055526Y017665D02*
X055526Y018865D01*
X056026Y019365D01*
X038026Y015665D02*
X038026Y015465D01*
X038526Y008966D02*
X038501Y008897D01*
X038473Y008830D01*
X038442Y008764D01*
X038826Y009165D02*
X039026Y008765D01*
X039026Y007865D01*
X031781Y007220D02*
X031626Y006865D01*
X012926Y023865D02*
X012926Y027865D01*
X013226Y028165D01*
X023326Y028165D01*
X024226Y028665D01*
X023326Y028865D02*
X012626Y028865D01*
X011791Y028130D01*
X011791Y023930D01*
X011626Y036065D02*
X010946Y036745D01*
X010946Y044665D01*
X033026Y047465D02*
X033326Y047165D01*
X033326Y041765D01*
X041326Y040265D02*
X041326Y036465D01*
X043426Y034365D01*
X043726Y034865D02*
X049926Y034865D01*
X051226Y035065D02*
X051326Y035165D01*
X051326Y036565D01*
X051526Y036765D01*
X053426Y036765D01*
X054326Y037465D01*
X054326Y039765D01*
X055026Y040465D01*
X060726Y040465D01*
X060826Y040365D01*
X061126Y040365D01*
X061226Y040265D01*
X063626Y040265D01*
X063826Y040165D01*
X063826Y039665D02*
X063026Y039665D01*
X062626Y040065D01*
X061126Y040065D01*
X061026Y040165D01*
X060726Y040165D01*
X060626Y040265D01*
X055226Y040265D01*
X054526Y039665D01*
X054526Y037365D01*
X053526Y036565D01*
X052126Y036565D01*
X051926Y036365D01*
X051926Y034565D01*
X050926Y035865D02*
X050926Y036665D01*
X051226Y036965D01*
X053326Y036965D01*
X054126Y037565D01*
X054126Y039865D01*
X054926Y040665D01*
X060826Y040665D01*
X060926Y040565D01*
X061226Y040565D01*
X061326Y040465D01*
X064326Y040465D01*
X064626Y040365D01*
X065026Y041265D02*
X097126Y041265D01*
X097726Y042565D02*
X098926Y042565D01*
X098626Y043165D02*
X097726Y043165D01*
X097626Y043265D01*
X065626Y043265D01*
X064826Y042965D01*
X063326Y042965D01*
X063726Y042665D02*
X064626Y042665D01*
X065626Y043065D01*
X097426Y043065D01*
X097726Y042565D01*
X098026Y043565D02*
X089926Y043565D01*
X088926Y044465D01*
X066126Y044465D01*
X065126Y043465D01*
X064526Y043465D01*
X064026Y043765D02*
X065126Y043765D01*
X066026Y044665D01*
X089126Y044665D01*
X089926Y044065D01*
X097326Y044065D01*
X096626Y044458D02*
X096233Y044458D01*
X096226Y044465D01*
X096426Y044465D01*
X096226Y044465D02*
X089926Y044465D01*
X089326Y044865D01*
X065926Y044865D01*
X065126Y044065D01*
X063526Y044065D01*
X063626Y044865D02*
X063426Y045065D01*
X063426Y047365D01*
X064326Y049265D01*
X091207Y049282D01*
X090626Y048865D02*
X064726Y048865D01*
X064126Y047165D01*
X065726Y045065D02*
X089926Y045065D01*
X087926Y042665D02*
X087626Y042865D01*
X068126Y042865D01*
X068526Y042865D01*
X068126Y042865D02*
X065626Y042865D01*
X064526Y042365D01*
X064126Y042365D01*
X064826Y041865D02*
X088126Y041865D01*
X088526Y042265D01*
X089026Y041765D02*
X088826Y041565D01*
X065326Y041565D01*
X065026Y041265D02*
X064726Y041565D01*
X063626Y041565D01*
X061726Y041365D02*
X059026Y045265D01*
X049426Y045265D01*
X048126Y044365D02*
X055226Y044365D01*
X055926Y043465D02*
X051626Y043465D01*
X050826Y043165D02*
X055126Y043165D01*
X055526Y043065D01*
X055926Y043465D02*
X056026Y043365D01*
X056426Y041465D02*
X044426Y041465D01*
X043526Y041765D01*
X043526Y047565D01*
X044526Y047565D02*
X044526Y046065D01*
X044526Y041965D01*
X045426Y041665D01*
X060626Y041665D01*
X061426Y040665D01*
X066226Y040665D01*
X066826Y040165D01*
X068126Y040165D01*
X068526Y040565D02*
X066826Y040565D01*
X066326Y040865D01*
X061526Y040865D01*
X060726Y041865D01*
X046126Y041865D01*
X045526Y042065D01*
X045526Y047565D01*
X047526Y047565D02*
X047526Y046065D01*
X047526Y044365D01*
X047826Y043965D01*
X059426Y043965D01*
X061626Y041065D01*
X066526Y041065D01*
X066926Y040965D01*
X066826Y039365D02*
X064826Y039365D01*
X064526Y039665D01*
X064526Y037465D02*
X062126Y039865D01*
X061026Y039865D01*
X060926Y039965D01*
X060226Y039965D01*
X060726Y039665D02*
X062026Y039665D01*
X064526Y037165D01*
X077126Y037165D01*
X087426Y033965D01*
X096626Y033965D01*
X097326Y033165D01*
X098026Y033165D01*
X099376Y033165D01*
X100026Y032715D01*
X100026Y030065D01*
X099612Y029559D01*
X099226Y029365D02*
X099226Y030865D01*
X099726Y031365D01*
X099726Y032165D01*
X099526Y032365D01*
X099226Y032365D01*
X097026Y032365D01*
X096126Y033365D01*
X087426Y033365D01*
X076526Y036565D01*
X064526Y036565D01*
X062026Y039065D01*
X060726Y039065D01*
X060226Y038765D02*
X062026Y038765D01*
X064526Y036265D01*
X076426Y036265D01*
X087426Y032965D01*
X088126Y032265D01*
X088526Y032265D01*
X095326Y032265D01*
X097250Y030341D01*
X097250Y029559D01*
X098026Y029565D02*
X098032Y029559D01*
X098426Y029165D01*
X099026Y029165D01*
X099226Y029365D01*
X100400Y029559D02*
X100426Y029565D01*
X100426Y033015D01*
X099376Y033765D01*
X097626Y033765D01*
X097126Y034265D01*
X087426Y034265D01*
X077126Y037465D01*
X064526Y037465D01*
X064526Y036865D02*
X076826Y036865D01*
X087426Y033665D01*
X096426Y033665D01*
X097226Y032765D01*
X098626Y032765D01*
X099326Y031765D02*
X096926Y031765D01*
X095926Y032765D01*
X091926Y032765D01*
X089126Y031565D02*
X089026Y031565D01*
X095626Y031565D01*
X096463Y030728D01*
X096463Y029559D01*
X095726Y029665D02*
X095726Y030665D01*
X095426Y030965D01*
X089126Y030965D01*
X088226Y030965D01*
X087326Y032165D01*
X076226Y035665D01*
X064526Y035665D01*
X062026Y038165D01*
X060226Y038165D01*
X060726Y038465D02*
X062026Y038465D01*
X064526Y035965D01*
X076326Y035965D01*
X087326Y032565D01*
X088226Y031565D01*
X089026Y031565D01*
X088626Y032265D02*
X088526Y032265D01*
X086926Y030365D02*
X086626Y029965D01*
X086626Y027565D01*
X086326Y027265D01*
X079826Y027265D01*
X079326Y027765D01*
X078526Y027765D01*
X078526Y027165D02*
X079526Y027165D01*
X079726Y026965D01*
X086826Y026965D01*
X087376Y027565D01*
X087376Y029165D01*
X087820Y029559D01*
X087801Y029559D01*
X087820Y029559D02*
X087826Y029565D01*
X086926Y030365D02*
X095026Y030365D01*
X095326Y030065D01*
X095326Y028265D01*
X095626Y027965D01*
X103426Y027965D01*
X104026Y028565D01*
X104026Y031565D01*
X101226Y029565D02*
X101220Y029559D01*
X101187Y029559D01*
X101226Y029565D02*
X101126Y029565D01*
X100826Y029065D01*
X100826Y028465D01*
X100626Y028165D01*
X097926Y028165D01*
X097626Y028465D01*
X097626Y030565D01*
X097126Y030965D01*
X098032Y029559D02*
X098038Y029559D01*
X095726Y029665D02*
X095675Y029715D01*
X095675Y029559D01*
X093326Y029565D02*
X092826Y030065D01*
X092326Y030065D01*
X092126Y029865D01*
X092126Y029465D01*
X091826Y029165D01*
X091526Y029165D01*
X091326Y028965D01*
X091326Y026865D01*
X091026Y026565D01*
X080626Y026565D01*
X080426Y026365D01*
X079826Y026365D01*
X080326Y025965D02*
X080526Y025965D01*
X080826Y026365D01*
X091326Y026365D01*
X091626Y026665D01*
X091626Y028065D01*
X092126Y028565D01*
X092126Y029165D01*
X092526Y029565D01*
X092526Y029559D01*
X093313Y029559D02*
X093320Y029559D01*
X093326Y029565D01*
X092226Y027765D02*
X092226Y025865D01*
X091826Y025465D01*
X076626Y025465D01*
X076426Y025665D01*
X076326Y025665D01*
X079126Y026765D02*
X087226Y026765D01*
X087826Y027465D01*
X087826Y028665D01*
X087801Y028790D01*
X087801Y028771D01*
X067526Y038665D02*
X066826Y039365D01*
X064526Y036865D02*
X062026Y039365D01*
X060226Y039365D01*
X057126Y041265D02*
X056426Y041465D01*
X064626Y044765D02*
X065226Y044765D01*
X065726Y045065D01*
X060026Y049665D02*
X057826Y049165D01*
X038726Y049165D01*
X037026Y047665D01*
X033026Y047665D02*
X033026Y047465D01*
X042326Y040265D02*
X042326Y036265D01*
X043726Y034865D01*
X060026Y049665D02*
X089926Y049665D01*
X091226Y017465D02*
X081426Y017465D01*
X083426Y015465D02*
X084026Y015865D01*
X086626Y015865D01*
X087026Y015465D01*
X087026Y013865D01*
X088026Y013265D01*
X088026Y010665D01*
X088626Y010065D01*
X088626Y006065D01*
X088656Y005895D01*
X088626Y005865D01*
X088656Y003684D01*
X089896Y003684D02*
X089896Y005795D01*
X089826Y005865D01*
X089826Y009865D01*
X089026Y010665D01*
X089026Y013265D01*
X088526Y013665D01*
X088526Y014665D01*
X089526Y014665D02*
X089526Y012665D01*
X090026Y012165D01*
X090026Y010665D01*
X090426Y010265D01*
X090427Y007264D01*
X091226Y005865D02*
X091156Y005795D01*
X091156Y003694D01*
X092396Y003694D02*
X092396Y006035D01*
X092426Y006065D01*
X092426Y013265D01*
X092026Y013665D01*
X091026Y013665D01*
X090526Y014165D01*
X090526Y014665D01*
X090026Y015165D02*
X089526Y015665D01*
X088026Y015665D01*
X087526Y015165D01*
X087526Y014665D01*
X086026Y015265D02*
X086026Y013865D01*
X087026Y013265D01*
X087026Y010065D01*
X087026Y007865D01*
X087406Y007085D01*
X087406Y003694D01*
X086156Y003694D02*
X086156Y005395D01*
X086026Y005465D01*
X086026Y013265D01*
X085526Y013665D01*
X085526Y014665D01*
X086026Y015265D02*
X085826Y015465D01*
X084226Y015465D01*
X084026Y015265D01*
X084026Y013465D01*
X083826Y013265D01*
X082826Y013265D01*
X082526Y013565D01*
X082526Y014665D01*
X083426Y014865D02*
X083426Y015465D01*
X083426Y014865D02*
X083526Y014665D01*
X084526Y014665D02*
X084526Y013665D01*
X085026Y013265D01*
X085026Y010665D01*
X084826Y010465D01*
X084826Y005865D01*
X084886Y005805D01*
X084886Y003694D01*
X083681Y003684D02*
X083681Y006720D01*
X084026Y007265D01*
X087026Y009865D02*
X087026Y010065D01*
X091026Y010665D02*
X091026Y012865D01*
X090026Y013865D01*
X090026Y015165D01*
X091526Y014665D02*
X091926Y015465D01*
X103526Y015465D01*
X104026Y014665D01*
X103026Y014665D02*
X103026Y013665D01*
X102526Y013165D01*
X102526Y010665D01*
X101146Y009285D01*
X101146Y003694D01*
X099896Y003694D02*
X099896Y009035D01*
X101526Y010665D01*
X101526Y013165D01*
X102026Y013665D01*
X102026Y014665D01*
X101026Y014665D02*
X101026Y013665D01*
X100526Y013165D01*
X100526Y010665D01*
X098636Y008775D01*
X098636Y003674D01*
X097396Y003674D02*
X097426Y008465D01*
X099526Y010665D01*
X099526Y013165D01*
X100026Y013665D01*
X100026Y014665D01*
X098026Y014665D02*
X098026Y013065D01*
X098426Y012665D01*
X098426Y010665D01*
X097026Y009265D01*
X097026Y007265D01*
X096826Y007065D01*
X096026Y005865D02*
X096156Y005735D01*
X096156Y003684D01*
X094906Y003684D02*
X094906Y005785D01*
X094826Y005865D01*
X094826Y010065D01*
X095526Y010665D01*
X095526Y013165D01*
X096026Y013665D01*
X096026Y014665D01*
X097026Y014665D02*
X097026Y013665D01*
X096526Y013165D01*
X096526Y010665D01*
X096026Y010065D01*
X096026Y005865D01*
X093526Y005965D02*
X093526Y003665D01*
X093555Y003694D01*
X093656Y003694D01*
X093426Y005865D02*
X093526Y005965D01*
X093426Y005865D02*
X093426Y012665D01*
X094026Y013165D01*
X094526Y013165D01*
X095026Y013665D01*
X095026Y014665D01*
X091526Y014665D02*
X091526Y017165D01*
X091226Y017465D01*
X091026Y010665D02*
X091226Y010465D01*
X091226Y005865D01*
X071136Y003674D02*
X071136Y009155D01*
X070626Y009865D01*
X069896Y009195D02*
X069826Y009265D01*
X069896Y009195D02*
X069896Y003674D01*
D26*
X034826Y025665D02*
X033226Y025665D01*
X033226Y029665D01*
X036026Y032465D01*
X037126Y032465D01*
X037126Y031765D01*
X034826Y029465D01*
X034826Y025665D01*
D27*
X076326Y025665D02*
X076326Y028465D01*
X077326Y029465D01*
X083626Y029465D01*
X084526Y030365D01*
X086026Y030365D01*
X086226Y030165D01*
X086226Y029565D01*
X086227Y029564D01*
X086227Y029559D01*
X086226Y029565D02*
X086226Y028765D01*
X086227Y028766D01*
X086227Y028771D01*
M02*
